<svg aria-hidden="true" style="position: absolute; width: 0; height: 0; overflow: hidden;" version="1.1" xmlns="http://www.w3.org/2000/svg" xmlns:xlink="http://www.w3.org/1999/xlink">
<defs>
<symbol id="icon-antenna-1" viewBox="0 0 32 32">
<path fill="#212121" style="fill: var(--color1, #212121)" d="M30.775 22.098l-8.443-8.503 0.937-4.617c0.242 0.091 0.498 0.142 0.759 0.146h0.027c1.192-0 2.157-0.966 2.157-2.158s-0.966-2.158-2.158-2.158-2.158 0.966-2.158 2.158c0 0.264 0.048 0.518 0.135 0.752l-0.005-0.015-0.005-0.015-4.955 0.603-8.091-8.133c-0.097-0.098-0.231-0.159-0.379-0.16h-0c-0 0-0.001 0-0.001 0-0.145 0-0.275 0.059-0.369 0.155l-0 0-1.513 1.504c-0.097 0.096-0.157 0.23-0.157 0.377s0.060 0.281 0.157 0.377l0 0 0.814 0.823c-1.143 2.062-1.816 4.522-1.816 7.14 0 4.106 1.656 7.824 4.336 10.525l-0.001-0.001c0.041 0.041 0.090 0.074 0.143 0.1l0.003 0.001c-0.032 0.183-0.050 0.366-0.050 0.549v6.185h-6.4c0 0 0 0 0 0-1.473 0-2.667 1.193-2.67 2.665v1.065c0 0.297 0.238 0.535 0.535 0.535h24.535c0.293 0 0.53-0.238 0.53-0.535v-1.065c-0.003-1.471-1.194-2.662-2.665-2.665h-6.4v-2.743c0.915 0.2 1.966 0.315 3.043 0.315 2.581 0 5.008-0.659 7.123-1.817l-0.077 0.039 0.818 0.823c0.095 0.099 0.228 0.16 0.375 0.16v0c0.146-0.003 0.278-0.061 0.375-0.155l-0 0 1.509-1.509c0.097-0.095 0.158-0.228 0.158-0.375s-0.060-0.28-0.157-0.375l-0-0zM23.278 6.235c0.193-0.192 0.459-0.311 0.752-0.311 0.588 0 1.065 0.477 1.065 1.065s-0.476 1.064-1.063 1.065h-0.002c-0.588-0-1.065-0.477-1.065-1.065 0-0.297 0.122-0.566 0.318-0.759l0-0zM22.025 9.737l-0.599 2.944-1.175-1.179 1.774-1.765zM21.417 8.837l-1.92 1.906-1.486-1.49 3.406-0.416zM24.005 28.8c0.884 0 1.6 0.716 1.6 1.6v0 0.535h-23.465v-0.535c0-0.884 0.716-1.6 1.6-1.6v0h20.261zM16.539 26.665v1.070h-5.339v-1.070h5.335zM11.2 25.6v-4.055c0-1.294 1.198-2.345 2.665-2.345 1.472 0 2.67 1.051 2.67 2.345v4.055h-5.335zM17.6 23.904v-2.359c0-1.879-1.673-3.41-3.735-3.41h-0.062c-0.001 0-0.001 0-0.002 0-1.344 0-2.525 0.699-3.2 1.753l-0.009 0.015-0.009 0.016c-2.358-2.473-3.809-5.83-3.809-9.525 0-0.008 0-0.016 0-0.024v0.001c0-2.314 0.567-4.496 1.569-6.415l-0.036 0.077 18.606 18.711c-1.822 0.946-3.978 1.501-6.264 1.501-1.080 0-2.132-0.124-3.141-0.358l0.093 0.018zM28.891 23.218l-0.754-0.754-20.302-20.425 0.754-0.75 21.061 21.179-0.759 0.75z"></path>
<path fill="#2196f3" style="fill: var(--color2, #2196f3)" d="M13.874 20.265h-0.005c-0.001 0-0.002 0-0.002 0-0.884 0-1.6 0.716-1.6 1.6s0.715 1.599 1.597 1.6h0.007c0 0 0.001 0 0.001 0 0.884 0 1.6-0.716 1.6-1.6s-0.716-1.599-1.599-1.6h-0zM14.249 22.245c-0.097 0.097-0.23 0.157-0.378 0.157-0.295 0-0.534-0.239-0.534-0.534 0-0.001 0-0.002 0-0.003v0c0-0.296 0.238-0.533 0.532-0.535 0.294 0.001 0.532 0.24 0.532 0.535 0 0.148-0.060 0.282-0.157 0.379v0z"></path>
</symbol>
<symbol id="icon-astronaut-1" viewBox="0 0 32 32">
<path fill="#2196f3" style="fill: var(--color2, #2196f3)" d="M31.973 4.526c-0.063-0.192-0.227-0.334-0.427-0.366l-0.003-0-1.911-0.274-0.855-1.737c-0.178-0.361-0.777-0.361-0.955 0l-0.85 1.737-1.911 0.274c-0.262 0.038-0.461 0.261-0.461 0.53 0 0.151 0.063 0.288 0.164 0.385l0 0 1.385 1.344-0.325 1.902c-0.005 0.026-0.007 0.056-0.007 0.087 0 0.295 0.24 0.535 0.535 0.535 0.091 0 0.176-0.023 0.251-0.062l-0.003 0.001-0.003 0.001 1.71-0.896 1.705 0.896c0.072 0.039 0.159 0.062 0.25 0.062 0.295 0 0.535-0.24 0.535-0.535 0-0.033-0.003-0.065-0.009-0.096l0 0.003v0.003l-0.329-1.902 1.385-1.349c0.1-0.098 0.163-0.234 0.163-0.385 0-0.059-0.009-0.115-0.027-0.168l0.001 0.004zM29.513 5.851c-0.1 0.097-0.163 0.232-0.163 0.382 0 0.031 0.003 0.062 0.008 0.092l-0-0.003 0.192 1.115-1.001-0.526c-0.072-0.039-0.158-0.063-0.249-0.063-0.093 0-0.18 0.024-0.255 0.066l0.003-0.001 0.003-0.001-1.001 0.526 0.192-1.115c0.005-0.028 0.008-0.060 0.008-0.093 0-0.148-0.061-0.282-0.159-0.378l-0-0-0.814-0.791 1.12-0.16c0.177-0.028 0.323-0.138 0.401-0.29l0.001-0.003 0.503-1.015 0.498 1.015c0.080 0.154 0.226 0.264 0.399 0.293l0.003 0 1.12 0.16-0.809 0.791zM26.135 20.526h-1.070v1.065h1.070v-1.070zM26.135 22.656h-1.070v1.065h1.070v-1.065zM27.2 21.591h-1.065v1.065h1.065v-1.065zM25.065 21.591h-1.065v1.065h1.065v-1.065zM22.4 26.391h-1.065v1.065h1.065v-1.065zM22.4 28.526h-1.065v1.065h1.065v-1.070zM23.465 27.456h-1.065v1.065h1.065v-1.065zM21.335 27.456h-1.070v1.065h1.070v-1.065zM16 24.256h-1.065v1.065h1.065v-1.065zM16 26.391h-1.065v1.065h1.065v-1.065zM17.065 25.326h-1.065v1.065h1.065v-1.070zM14.935 25.326h-1.070v1.065h1.070v-1.070zM5.865 6.126h-1.065v1.065h1.065v-1.070zM5.865 8.256h-1.065v1.065h1.065v-1.065zM6.935 7.191h-1.070v1.065h1.070v-1.065zM4.8 7.191h-1.065v1.065h1.065v-1.065z"></path>
<path fill="#212121" style="fill: var(--color1, #212121)" d="M24.713 14.158c-0.278-0.374-0.693-0.632-1.169-0.702l-0.010-0.001-0.009-0.001c-0.077-0.012-0.166-0.019-0.256-0.019-0.412 0-0.791 0.141-1.091 0.377l0.004-0.003 0.004-0.003-1.248 0.96-1.902 1.417-1.358-0.539c2.423-1.088 4.114-3.506 4.114-6.322 0-3.822-3.122-6.93-6.962-6.93s-6.958 3.109-6.958 6.93c0 1.39 0.411 2.674 1.12 3.762l-2.77-0.027-0.023 0.005c-0.056 0.002-0.109 0.013-0.158 0.033l0.003-0.001-0.037 0.014-0.023 0.005-3.232 1.6-1.893 0.91c-0.505 0.321-0.835 0.877-0.835 1.51 0 0.985 0.798 1.783 1.783 1.783 0.306 0 0.594-0.077 0.846-0.213l-0.009 0.005-0.010 0.005 1.385-0.736 2.263-1.17 1.358-0.009-6.779 6.757c-0.307 0.299-0.497 0.716-0.497 1.177s0.19 0.878 0.495 1.176l0 0c0.301 0.303 0.718 0.49 1.179 0.49s0.878-0.187 1.179-0.49l1.307-1.312 1.742-1.298 0.901 0.896-1.76 1.755-1.339 1.33c-0.308 0.299-0.5 0.716-0.5 1.179s0.191 0.88 0.499 1.179l0 0c0.301 0.303 0.718 0.49 1.179 0.49s0.878-0.187 1.179-0.49l0-0 3.483-3.47 1.015-1.006h-0.005l0.018-0.018 5.166-5.659 3.474 0.498c0.019 0.003 0.041 0.004 0.063 0.004 0.073 0 0.142-0.015 0.204-0.043l-0.003 0.001-0.003 0.001 0.050-0.023c0.018-0.009 0.041-0.014 0.059-0.027l3.214-2.13 0.027-0.032 0.041-0.023 1.271-1.193c0.347-0.326 0.562-0.788 0.562-1.3 0-0.401-0.132-0.771-0.355-1.068l0.003 0.005zM2.13 17.769c-0.11 0.071-0.244 0.114-0.387 0.114-0.396 0-0.716-0.321-0.716-0.716 0-0.252 0.13-0.473 0.326-0.601l0.003-0.002 0.003-0.002 1.317-0.631 0.315 0.923 0.133 0.389-0.992 0.526zM5.627 15.941l-1.55 0.8-0.256-0.741-0.183-0.535 2.030-1.006-0.041 1.486zM20.727 9.326c-0.001 0.933-0.222 1.813-0.614 2.593l0.015-0.033-4.183-1.897c-0.042-0.573-0.338-1.070-0.774-1.382l-0.006-0.004-0.006-0.004 1.463-4.859c2.377 0.754 4.105 2.971 4.105 5.586zM8.937 9.326c0.011-3.243 2.643-5.868 5.888-5.868 0.276 0 0.549 0.019 0.815 0.056l-0.031-0.003-0.030-0.003-1.435 4.754-0.055-0.005c0 0 0 0-0 0-1.032 0-1.869 0.834-1.874 1.864v0.002c0.011 1.026 0.846 1.854 1.874 1.854 0.684 0 1.282-0.366 1.609-0.913l0.005-0.009 0.005-0.009 3.858 1.755c-1.085 1.458-2.804 2.393-4.741 2.393-3.245 0-5.878-2.623-5.893-5.865v-0.002zM14.894 10.126c0 0.446-0.361 0.807-0.807 0.807s-0.807-0.361-0.807-0.807v0c0-0.439 0.366-0.8 0.809-0.8s0.805 0.361 0.805 0.8zM2.469 25.147c-0.11 0.107-0.261 0.173-0.427 0.173s-0.317-0.066-0.428-0.173l0 0c-0.11-0.108-0.177-0.257-0.177-0.423s0.068-0.315 0.177-0.423l0.96-0.96 0.855 0.85-0.965 0.951zM5.682 28.878c-0.106 0.096-0.248 0.155-0.403 0.155-0.332 0-0.601-0.269-0.601-0.601 0-0.152 0.057-0.291 0.15-0.397l-0.001 0.001 0.96-0.96 0.855 0.846-0.96 0.96zM9.166 25.413l-1.769 1.76-0.85-0.85 1.765-1.751c0.041-0.046 0.064-0.091 0.091-0.137l0.023-0.046c0.015-0.036 0.025-0.078 0.027-0.122l0-0.001c0-0.027 0.014-0.046 0.014-0.073 0-0.037-0.014-0.073-0.018-0.105l-0.018-0.096c-0.027-0.052-0.057-0.097-0.092-0.138l0.001 0.001-0.027-0.041-1.609-1.6c-0.014-0.018-0.037-0.023-0.055-0.037-0.032-0.023-0.059-0.046-0.091-0.059-0.025-0.012-0.054-0.022-0.085-0.030l-0.003-0.001-0.003-0.001c-0.028-0.010-0.061-0.018-0.095-0.023l-0.003-0h-0.003c-0.032 0-0.064 0-0.096 0.009-0.037 0-0.069 0.009-0.105 0.018-0.035 0.011-0.065 0.027-0.092 0.047l0.001-0.001c-0.023 0.009-0.046 0.014-0.064 0.027l-1.774 1.326-0.901-0.901 2.4-2.386 4.361 4.293-0.928 0.914zM15.982 18.395h-0.046l-0.025-0.001c-0.001 0-0.001 0-0.002 0-0.136 0-0.261 0.052-0.354 0.138l0-0-0.041 0.032-4.699 5.143-4.325-4.251 2.834-2.821c0.097-0.097 0.157-0.231 0.157-0.379 0-0.295-0.239-0.535-0.534-0.535h-0.007l-2.217 0.014 0.027-1.609 3.104 0.027c1.26 1.295 3.020 2.099 4.967 2.099 0.004 0 0.007 0 0.011 0h-0.001c0.455 0 0.899-0.044 1.33-0.127l-0.044 0.007c0.037 0.034 0.079 0.063 0.125 0.086l0.003 0.001 2.409 0.96 0.151 0.759 0.183 0.882-3.008-0.425zM20.023 18.574l-0.311-1.559 1.445-1.079 0.379 0.503 0.567 0.75-2.080 1.385zM23.781 15.739l-0.841 0.786-0.928-1.234 0.827-0.64c0.121-0.093 0.275-0.149 0.442-0.149 0.039 0 0.077 0.003 0.115 0.009l-0.004-0.001-0.004-0.001c0.352 0.051 0.619 0.35 0.619 0.712 0 0.205-0.086 0.391-0.224 0.522l-0 0z"></path>
<path fill="#212121" style="fill: var(--color1, #212121)" d="M13.6 18.546l-2.139-2.135c-0.097-0.096-0.23-0.155-0.377-0.155s-0.28 0.059-0.377 0.155l0-0-2.144 2.135c-0.096 0.097-0.155 0.23-0.155 0.377s0.059 0.28 0.155 0.377l-0-0 2.144 2.135c0.097 0.096 0.23 0.155 0.377 0.155s0.28-0.059 0.377-0.155l-0 0 2.139-2.135c0.096-0.097 0.155-0.23 0.155-0.377s-0.059-0.28-0.155-0.377l0 0zM11.086 20.302l-1.394-1.376 1.385-1.381 1.39 1.381-1.39 1.381zM17.166 5.074l-0.261 1.033c0.073 0.018 1.737 0.453 1.737 2.149h1.070c0-2.016-1.669-2.967-2.546-3.186zM19.712 9.326h-1.070v1.065h1.070v-1.070z"></path>
</symbol>
<symbol id="icon-clock-1" viewBox="0 0 32 32">
<path fill="#212121" style="fill: var(--color1, #212121)" d="M31.296 15.301c-0.001-8.452-6.853-15.303-15.305-15.303s-15.305 6.852-15.305 15.305c0 6.79 4.422 12.548 10.543 14.55l0.108 0.031c0.057 0.017 0.123 0.027 0.191 0.027 0.127 0 0.245-0.035 0.346-0.095l-0.003 0.002-0.003 0.002c0.133-0.081 0.233-0.205 0.282-0.352l0.001-0.005 3.863-12.251c1.048-0.010 1.894-0.862 1.894-1.911 0-1.055-0.856-1.911-1.911-1.911-0.304 0-0.591 0.071-0.846 0.197l0.011-0.005 0.011-0.005-5.102-5.106c-0.112-0.099-0.26-0.159-0.422-0.159-0.353 0-0.64 0.287-0.64 0.64 0 0.161 0.059 0.308 0.157 0.42l-0.001-0.001 5.105 5.11c-0.122 0.241-0.193 0.526-0.193 0.827 0 0.599 0.282 1.132 0.72 1.475l0.008 0.006-3.685 11.671c-5.408-2.035-9.186-7.165-9.186-13.177 0-7.756 6.287-14.043 14.043-14.043s14.043 6.287 14.043 14.043c0 5.688-3.381 10.586-8.243 12.793l-0.088 0.036-0.398-1.874c-0.067-0.289-0.322-0.501-0.626-0.501-0.162 0-0.31 0.060-0.422 0.159l0.001-0.001 0.001-0.001-3.84 3.429c-0.128 0.117-0.207 0.285-0.207 0.472 0 0.28 0.18 0.518 0.431 0.605l0.005 0.001 0.005 0.001 4.901 1.563c0.057 0.019 0.124 0.030 0.192 0.030 0.353 0 0.64-0.287 0.64-0.64 0-0.048-0.005-0.094-0.015-0.139l0.001 0.004 0.001 0.004-0.393-1.838c5.529-2.374 9.33-7.772 9.33-14.057v-0.032zM15.991 14.661c0.353 0 0.64 0.287 0.64 0.64s-0.287 0.64-0.64 0.64v0c-0.353 0-0.64-0.287-0.64-0.64s0.287-0.64 0.64-0.64v0zM18.094 29.527l2.185-1.947 0.599 2.839-2.789-0.891z"></path>
<path fill="#2196f3" style="fill: var(--color2, #2196f3)" d="M15.355 3.186v1.275c-0.001 0.015-0.002 0.032-0.002 0.050 0 0.353 0.287 0.64 0.64 0.64s0.64-0.287 0.64-0.64c0-0.018-0.001-0.036-0.002-0.054l0 0.002v0.002-1.28c0-0.353-0.287-0.64-0.64-0.64s-0.64 0.287-0.64 0.64v0zM3.877 14.665c-0.327 0.032-0.58 0.306-0.58 0.638s0.252 0.605 0.575 0.638l0.003 0h1.277c0.353 0 0.64-0.287 0.64-0.64s-0.287-0.64-0.64-0.64h-1.28zM28.11 15.941c0.353 0 0.64-0.287 0.64-0.64s-0.287-0.64-0.64-0.64h-1.28c-0.353 0-0.64 0.287-0.64 0.64s0.287 0.64 0.64 0.64h1.28z"></path>
</symbol>
<symbol id="icon-diagram-1" viewBox="0 0 32 32">
<path fill="#2196f3" style="fill: var(--color2, #2196f3)" d="M14.926 14.967h1.065v4.795h-1.065v-4.8zM19.191 17.097h1.065v2.665h-1.065v-2.665zM10.661 18.697h1.065v1.065h-1.065v-1.065zM7.461 18.162h1.070v1.6h-1.070v-1.6z"></path>
<path fill="#212121" style="fill: var(--color1, #212121)" d="M1.6 28.293h25.586c0.884 0 1.6-0.716 1.6-1.6v0-2.135c0-0.884-0.716-1.6-1.6-1.6v0h-0.535v-13.285l3.031-2.871c0.207 0.104 0.45 0.164 0.708 0.164 0.889 0 1.609-0.72 1.609-1.609s-0.72-1.609-1.609-1.609c-0.889 0-1.609 0.72-1.609 1.609 0 0.251 0.058 0.489 0.16 0.7l-0.004-0.010-0.004-0.010-2.281 2.162v-1.23c0-0.884-0.716-1.6-1.6-1.6v0h-21.321c-0.884 0-1.6 0.716-1.6 1.6v0 15.995h-0.53c-0.884 0-1.6 0.716-1.6 1.6v0 2.13c0 0.884 0.716 1.6 1.6 1.6v0zM30.386 4.837c0.013-0.001 0.029-0.002 0.045-0.002 0.295 0 0.535 0.24 0.535 0.535s-0.24 0.535-0.535 0.535c-0.017 0-0.033-0.001-0.050-0.002l0.002 0h0.002c-0.269-0.031-0.476-0.258-0.476-0.533s0.206-0.5 0.471-0.532l0.003-0h0.002zM3.2 6.967c0-0.293 0.237-0.53 0.53-0.53h21.321c0.297 0 0.535 0.238 0.535 0.53v2.24l-1.065 1.015v-2.185c0-0.001 0-0.001 0-0.002 0-0.294-0.239-0.533-0.533-0.533-0.001 0-0.001 0-0.002 0h-19.186c-0.293 0.001-0.53 0.238-0.53 0.531 0 0.001 0 0.003 0 0.004v-0 13.326c0 0.293 0.238 0.53 0.53 0.53h19.191c0.001 0 0.002 0 0.003 0 0.293 0 0.531-0.237 0.532-0.53v-9.673l1.065-1.010v12.283h-22.391v-15.995zM8 13.897h-0.013c-0 0-0 0-0.001 0-0.884 0-1.6 0.716-1.6 1.6s0.716 1.6 1.6 1.6c0.434 0 0.828-0.173 1.116-0.453l-0 0 1.856 0.933c0.069 0.034 0.15 0.054 0.236 0.054 0.158 0 0.3-0.068 0.399-0.177l0-0 3.936-4.434 3.872 2.903c0.21 0.155 0.503 0.137 0.686-0.037l3.369-3.191v8.137h-18.126v-12.27h18.126v2.661l-3.771 3.57-3.904-2.926c-0.088-0.067-0.2-0.107-0.321-0.107-0.159 0-0.302 0.069-0.4 0.18l-0 0.001v0.001l-3.991 4.494-1.495-0.75c0.014-0.064 0.018-0.128 0.023-0.192 0-0.884-0.716-1.6-1.6-1.6v0zM8.53 15.497c0 0.295-0.24 0.535-0.535 0.535s-0.535-0.24-0.535-0.535v0c0-0.295 0.24-0.535 0.535-0.535s0.535 0.24 0.535 0.535v0zM11.73 24.027h5.321v0.53c0 0.001 0 0.002 0 0.003 0 0.293-0.237 0.531-0.53 0.532h-4.265c-0.295-0.001-0.534-0.24-0.535-0.535v-0.53zM1.061 24.558c0-0.293 0.238-0.53 0.535-0.53h9.061v0.53c0 0.884 0.716 1.6 1.6 1.6h4.265c0.884 0 1.6-0.716 1.6-1.6v0-0.53h9.061c0.293 0 0.53 0.237 0.53 0.53v0 2.135c0 0.293-0.237 0.53-0.53 0.53v0h-25.582c-0.001 0-0.002 0-0.003 0-0.293 0-0.531-0.237-0.532-0.53v-2.135z"></path>
</symbol>
<symbol id="icon-envelope-hover" viewBox="0 0 43 32">
<path fill="#2196f3" style="fill: var(--color2, #2196f3)" d="M38.667 0h-34.667c-2.213 0-4 1.787-4 4v24c0 2.213 1.787 4 4 4h34.667c2.213 0 4-1.787 4-4v-24c0-2.213-1.787-4-4-4zM38.667 2.667h0.011c0.189 0 0.368 0.039 0.531 0.11l-0.009-0.003-17.867 15.467-17.867-15.467c0.154-0.068 0.332-0.107 0.521-0.107 0.001 0 0.002 0 0.003 0h34.677zM38.667 29.333h-34.667c-0.736 0-1.333-0.597-1.333-1.333v0-22.4l17.787 15.413c0.233 0.207 0.542 0.333 0.88 0.333s0.648-0.127 0.882-0.336l-0.001 0.001-0.001 0.001 17.787-15.413v22.4c0 0.736-0.597 1.333-1.333 1.333z"></path>
</symbol>
<symbol id="icon-facebook-1" viewBox="0 0 32 32">
<path fill="#fff" style="fill: var(--color3, #fff)" d="M21.33 5.31h2.93v-5.090c-0.52-0.060-2.24-0.22-4.26-0.22-4.22 0-7.1 2.66-7.1 7.52v4.48h-4.64v5.68h4.64v14.32h5.7v-14.3h4.46l0.7-5.7h-5.17v-3.92c0-1.65 0.45-2.77 2.74-2.77z"></path>
</symbol>
<symbol id="icon-instagram-2" viewBox="0 0 32 32">
<path fill="#fff" style="fill: var(--color3, #fff)" d="M31.97 9.4c-0.030-1.4-0.3-2.73-0.76-3.96l0.020 0.080c-0.427-1.108-1.056-2.051-1.849-2.829l-0.001-0.001c-0.783-0.789-1.73-1.415-2.786-1.822l-0.054-0.018c-1.146-0.45-2.472-0.723-3.859-0.75l-0.011-0h-0.010c-1.466-0.073-3.184-0.115-4.911-0.115-0.625 0-1.25 0.005-1.872 0.016l0.094-0.001h0.1c-4.36 0-4.9 0.020-6.6 0.1-1.71 0.060-2.87 0.35-3.89 0.73-1.107 0.437-2.050 1.072-2.828 1.868l-0.002 0.002c-0.79 0.778-1.418 1.718-1.831 2.766l-0.019 0.054c-0.448 1.15-0.718 2.48-0.74 3.871l-0 0.009c-0.073 1.466-0.115 3.184-0.115 4.911 0 0.625 0.005 1.249 0.016 1.872l-0.001-0.094v-0.090c0 4.35 0 4.9 0.080 6.6 0.030 1.4 0.3 2.73 0.78 3.96l-0.020-0.080c0.424 1.108 1.054 2.053 1.848 2.828l0.002 0.002c0.78 0.795 1.723 1.426 2.776 1.841l0.054 0.019c1.010 0.38 2.18 0.65 3.88 0.73s2.24 0.1 6.59 0.1 4.9-0.020 6.6-0.1c1.4-0.020 2.73-0.29 3.96-0.76l-0.080 0.030c2.141-0.849 3.808-2.506 4.65-4.585l0.020-0.055 0.020-0.050c0.38-1.020 0.67-2.18 0.73-3.89 0.080-1.7 0.1-2.24 0.1-6.59 0-4.34 0-4.88-0.080-6.6zM29.090 22.48c-0.007 1.065-0.208 2.082-0.57 3.018l0.020-0.058c-0.548 1.388-1.619 2.469-2.964 3.017l-0.036 0.013-0.040 0.010c-0.56 0.22-1.42 0.48-2.97 0.54-1.68 0.080-2.2 0.1-6.47 0.1-0.522 0.009-1.138 0.014-1.754 0.014-1.74 0-3.469-0.042-5.189-0.124l0.243 0.009h0.24c-1.064-0.002-2.081-0.2-3.018-0.56l0.058 0.020c-0.722-0.272-1.336-0.681-1.839-1.199l-0.001-0.001c-0.52-0.5-0.93-1.1-1.19-1.79l-0.010-0.030c-0.339-0.885-0.537-1.909-0.54-2.979v-0.001c-0.071-1.472-0.112-3.198-0.112-4.933 0-0.569 0.004-1.136 0.013-1.703l-0.001 0.085v0.090c0-4.28 0.020-4.79 0.1-6.47 0.060-1.57 0.32-2.4 0.54-2.97 0.26-0.7 0.66-1.32 1.2-1.83 0.5-0.52 1.12-0.93 1.8-1.19h0.040c0.56-0.23 1.4-0.49 2.98-0.55 1.68-0.080 2.19-0.1 6.44-0.1 4.3 0 4.8 0 6.47 0.1 1.57 0.060 2.4 0.32 2.97 0.54 0.7 0.26 1.33 0.66 1.84 1.2 0.53 0.51 0.95 1.14 1.2 1.83 0.21 0.57 0.48 1.42 0.55 2.97 0.080 1.68 0.1 2.2 0.1 6.47s-0.020 4.76-0.1 6.46z"></path>
<path fill="#fff" style="fill: var(--color3, #fff)" d="M16.060 7.78c-4.54 0-8.22 3.68-8.22 8.22s3.68 8.22 8.22 8.22v0c4.54 0 8.22-3.68 8.22-8.22s-3.68-8.22-8.22-8.22v0zM16.060 21.33c-2.944 0-5.33-2.386-5.33-5.33s2.386-5.33 5.33-5.33v0c2.944 0 5.33 2.386 5.33 5.33s-2.386 5.33-5.33 5.33v0zM26.53 7.46c0 1.060-0.86 1.92-1.92 1.92s-1.92-0.86-1.92-1.92v0c0-1.060 0.86-1.92 1.92-1.92s1.92 0.86 1.92 1.92v0z"></path>
</symbol>
<symbol id="icon-linkedin-1" viewBox="0 0 32 32">
<path fill="#fff" style="fill: var(--color3, #fff)" d="M32 32v-11.74c0-5.73-1.23-10.16-7.95-10.16h-0.26c-0.002 0-0.005 0-0.008 0-2.538 0-4.759 1.359-5.975 3.388l-0.018 0.032-0.010 0.030h-0.1v-2.91h-6.38v21.36h6.64v-10.58c0-2.78 0.53-5.49 3.97-5.49 3.4 0 3.45 3.19 3.45 5.67v10.4h6.64zM0.53 10.64h6.64v21.36h-6.64v-21.36zM3.84 0c-2.121 0-3.84 1.719-3.84 3.84v0 0.020c0 0 0 0 0 0 0 2.127 1.716 3.853 3.838 3.87h0.002c2.051-0.108 3.673-1.797 3.673-3.865s-1.622-3.757-3.664-3.865l-0.010-0z"></path>
</symbol>
<symbol id="icon-Logo1" viewBox="0 0 57 32">
<path fill="#afb1b8"   d="M20.27 3.73l3.73 3.54h-6.93v17.16h18.13v-6.56l3.73 3.53v-17.67h-18.66zM35.040 17.46l-10.6-10.040h10.6v10.030zM31.74 21.92h-11.8v-11.53h0.83v10.76h10.97v0.78zM22.73 26.72l-0.44 0.9-0.44-0.9h-0.36l0.64 1.2v0.7h0.32v-0.7l0.64-1.2h-0.37zM23.27 28.62l0.15-0.44h0.74l0.16 0.43h0.34l-0.72-1.89h-0.3l-0.71 1.9h0.35zM23.79 27.12l0.28 0.79h-0.55l0.27-0.79zM25.53 27.87c-0.043 0.065-0.069 0.144-0.070 0.23v0c0 0.16 0.050 0.3 0.17 0.4 0.1 0.1 0.26 0.14 0.45 0.14s0.35-0.050 0.48-0.15l0.1 0.12h0.38l-0.28-0.32c0.1-0.15 0.16-0.34 0.16-0.58h-0.27c0 0.13-0.030 0.25-0.090 0.35l-0.36-0.43 0.13-0.1c0.1-0.060 0.16-0.13 0.2-0.2 0.038-0.062 0.060-0.136 0.060-0.216 0-0.119-0.050-0.227-0.13-0.304l-0-0c-0.082-0.069-0.19-0.111-0.306-0.111-0.008 0-0.017 0-0.025 0.001l0.001-0h-0.040c-0.004-0-0.010-0-0.015-0-0.125 0-0.238 0.046-0.326 0.121l0.001-0.001c-0.087 0.084-0.141 0.201-0.141 0.331 0 0.010 0 0.020 0.001 0.030l-0-0.001c0 0.060 0.020 0.12 0.050 0.19s0.080 0.14 0.15 0.23c-0.1 0.080-0.2 0.16-0.28 0.27zM26.38 28.28c-0.081 0.067-0.186 0.109-0.3 0.11h-0.010c-0.077-0.001-0.148-0.031-0.2-0.080l0 0c-0.058-0.049-0.096-0.119-0.1-0.199l-0-0.001v-0.010c0-0.11 0.060-0.2 0.17-0.28l0.030-0.030 0.41 0.5zM26.050 27.44c-0.1-0.1-0.14-0.2-0.14-0.27s0.020-0.12 0.060-0.16c0.033-0.035 0.079-0.058 0.13-0.060l0-0h0.010c0.060 0 0.1 0.020 0.15 0.050 0.030 0.030 0.050 0.080 0.050 0.13 0 0.070-0.030 0.13-0.080 0.18l-0.040 0.030-0.14 0.1zM29.13 28.48c0.13-0.12 0.2-0.28 0.23-0.48h-0.33c-0.020 0.13-0.060 0.23-0.12 0.29-0.070 0.060-0.16 0.080-0.3 0.080h-0.010c-0.124-0.002-0.233-0.064-0.299-0.159l-0.001-0.001c-0.076-0.122-0.121-0.27-0.121-0.429 0-0.015 0-0.029 0.001-0.043l-0 0.002v-0.16c0-0.2 0.040-0.36 0.12-0.46 0.070-0.1 0.19-0.16 0.33-0.16 0.12 0 0.21 0.030 0.28 0.1s0.1 0.15 0.12 0.28h0.33c-0.011-0.189-0.093-0.358-0.22-0.48l-0-0c-0.126-0.106-0.29-0.17-0.468-0.17-0.001 0-0.001 0-0.002 0h-0.040c-0.16 0-0.3 0.040-0.41 0.11-0.119 0.078-0.211 0.187-0.268 0.315l-0.002 0.005c-0.070 0.13-0.1 0.3-0.1 0.47v0.18c0 0.17 0.030 0.33 0.1 0.46s0.15 0.23 0.27 0.3c0.11 0.080 0.25 0.11 0.4 0.11 0.2 0 0.38-0.050 0.51-0.17zM31.070 28.21c0.060-0.15 0.1-0.3 0.1-0.5v-0.1c0-0.19-0.040-0.35-0.1-0.48-0.115-0.261-0.372-0.44-0.67-0.44-0 0-0 0-0 0h-0.030c-0.15 0-0.28 0.040-0.4 0.12s-0.21 0.18-0.28 0.32c-0.060 0.14-0.1 0.3-0.1 0.5v0.1c0 0.18 0.040 0.34 0.1 0.48s0.16 0.24 0.28 0.32c0.119 0.072 0.262 0.114 0.415 0.114s0.296-0.043 0.419-0.116l-0.004 0.002c0.118-0.079 0.21-0.188 0.268-0.315l0.002-0.005zM30.71 27.14c0.080 0.1 0.13 0.27 0.13 0.48v0.1c0 0.21-0.040 0.37-0.12 0.48-0.069 0.103-0.185 0.17-0.317 0.17-0.001 0-0.002 0-0.003 0h-0.040c-0.132-0.003-0.248-0.069-0.319-0.169l-0.001-0.001c-0.077-0.122-0.122-0.271-0.122-0.431 0-0.021 0.001-0.042 0.002-0.062l-0 0.003v-0.1c0-0.2 0.040-0.36 0.12-0.48 0.072-0.098 0.186-0.161 0.316-0.161 0.009 0 0.017 0 0.026 0.001l-0.001-0c0.003-0 0.006-0 0.010-0 0.13 0 0.246 0.062 0.319 0.159l0.001 0.001z"></path>
</symbol>
<symbol id="icon-Logo2" viewBox="0 0 57 32">
<path fill="#afb1b8" style="fill: var(--color4, #afb1b8)" d="M26.73 3.16h-1.35c-1.94 0.11-3.84 0.6-5.6 1.44l-0.23 0.1v11.82l0.54-0.18c1.73-0.63 3.72-1 5.8-1.020h0.010v1.55l-0.56 0.010h-0.050c-2.69 0.15-5.17 0.9-7.37 2.1l0.1-0.040v-15.15c1.163-0.7 2.507-1.272 3.932-1.646l0.108-0.024 0.1-0.020c1.18-0.31 2.53-0.5 3.91-0.5h0.24c0.97 0 1.91 0.13 2.81 0.36l-0.080-0.010v1.53c-0.54-0.14-1.19-0.24-1.85-0.29h-0.070l-0.4-0.030zM29.41 4.72c0.323 0.023 0.7 0.036 1.080 0.036 1.493 0 2.94-0.199 4.315-0.572l-0.115 0.027-0.12 0.020c1.5-0.38 2.82-0.9 4.040-1.58l-0.080 0.040v14.88c-1.2 0.7-2.58 1.29-4.050 1.66l-0.1 0.030c-1.29 0.32-2.6 0.5-3.92 0.5h-0.090c-1.020 0-2.010-0.13-2.96-0.37l0.080 0.020v-14.97c0.56 0.13 1.21 0.23 1.89 0.28h0.030zM36.99 4.84l-0.54 0.18c-1.782 0.653-3.839 1.030-5.984 1.030-0.364 0-0.726-0.011-1.085-0.032l0.049 0.002h0.050l-0.44-0.030v12.14l0.37 0.040c0.315 0.025 0.682 0.039 1.053 0.039 1.293 0 2.546-0.171 3.738-0.492l-0.1 0.023-0.1 0.010c1.050-0.27 1.97-0.6 2.84-1.030l-0.090 0.040 0.24-0.11v-11.8zM19.060 24.11c-0.145-0.148-0.347-0.24-0.57-0.24h-0.030c-0.126 0.002-0.247 0.027-0.356 0.072l0.006-0.002c-0.296 0.122-0.501 0.408-0.501 0.742 0 0.013 0 0.027 0.001 0.040l-0-0.002v2.030c-0.001 0.014-0.001 0.031-0.001 0.048 0 0.25 0.108 0.476 0.281 0.631l0.001 0.001c0.080 0.070 0.17 0.12 0.27 0.14s0.2 0.050 0.3 0.050c0.47-0.010 0.85-0.4 0.85-0.86v-0.22h-0.54v0.18c0 0.060 0 0.12-0.020 0.18-0.019 0.043-0.046 0.080-0.080 0.11l-0 0c-0.060 0.048-0.136 0.078-0.22 0.080h-0.030c-0.003 0-0.007 0-0.010 0-0.085 0-0.16-0.039-0.21-0.1l-0-0c-0.044-0.071-0.070-0.158-0.070-0.25 0-0.007 0-0.014 0-0.021l-0 0.001v-1.9c0-0.1 0.020-0.2 0.070-0.3 0.048-0.072 0.128-0.118 0.22-0.12h0.040c0.1 0 0.17 0.050 0.23 0.11 0.050 0.080 0.090 0.17 0.090 0.27v0.18h0.52v-0.21c0-0.25-0.090-0.47-0.24-0.64zM22.2 24.090c-0.161-0.135-0.371-0.216-0.6-0.216-0.115 0-0.225 0.021-0.327 0.058l0.006-0.002c-0.1 0.030-0.2 0.090-0.27 0.16-0.173 0.163-0.281 0.393-0.281 0.649 0 0.011 0 0.022 0.001 0.033l-0-0.002v1.93c0 0.14 0.020 0.28 0.070 0.4 0.050 0.11 0.12 0.2 0.2 0.27 0.090 0.080 0.18 0.14 0.29 0.18 0.094 0.036 0.202 0.057 0.315 0.057s0.221-0.021 0.321-0.059l-0.006 0.002c0.329-0.115 0.56-0.423 0.56-0.785 0-0.002 0-0.004-0-0.005v0-2.030c0-0.25-0.11-0.48-0.28-0.64zM21.96 26.7v0.030c0 0.1-0.040 0.2-0.11 0.26-0.067 0.056-0.155 0.091-0.25 0.091s-0.183-0.034-0.251-0.091l0.001 0c-0.062-0.062-0.101-0.147-0.101-0.241 0-0.007 0-0.013 0.001-0.020l-0 0.001v-2c0-0.1 0.040-0.18 0.1-0.25 0.067-0.056 0.155-0.091 0.25-0.091s0.183 0.034 0.251 0.091l-0.001-0c0.070 0.070 0.1 0.16 0.1 0.26v1.96zM26.33 27.57v-3.67h-0.51l-0.67 1.95-0.68-1.95h-0.5v3.68h0.52v-2.24h0.010l0.51 1.58h0.27l0.52-1.58v2.24h0.53zM29.31 24.16c-0.079-0.091-0.18-0.16-0.295-0.199l-0.005-0.001c-0.1-0.040-0.23-0.060-0.36-0.060h-0.79v3.67h0.52v-1.44h0.27c0.16 0.010 0.32-0.020 0.47-0.1 0.207-0.131 0.354-0.34 0.399-0.585l0.001-0.005c0.023-0.129 0.037-0.277 0.037-0.429 0-0.188-0.021-0.372-0.060-0.548l0.003 0.017v0.020c-0.035-0.137-0.101-0.255-0.19-0.35l0 0zM29.050 25.28c-0.010 0.060-0.030 0.13-0.060 0.19-0.030 0.050-0.070 0.1-0.13 0.13-0.065 0.032-0.142 0.050-0.223 0.050-0.003 0-0.005-0-0.008-0h-0.26v-1.25h0.27c0.090 0 0.16 0 0.24 0.040 0.050 0.030 0.1 0.080 0.12 0.14 0.030 0.060 0.050 0.13 0.050 0.2v0.5zM31.79 23.9h-0.43l-0.8 3.67h0.52l0.16-0.78h0.7l0.17 0.78h0.51l-0.82-3.67zM31.31 26.28l0.26-1.33 0.26 1.33h-0.52zM35.17 26.11l-0.8-2.21h-0.5v3.67h0.53v-2.2l0.8 2.2h0.5v-3.67h-0.53v2.22zM38.37 23.9l-0.42 1.46-0.44-1.46h-0.55l0.72 2.12v1.55h0.53v-1.55l0.72-2.12h-0.56zM17.6 28.6h0.25v0.72h0.17v-0.71h0.25v-0.15h-0.67v0.15zM19.72 28.46l-0.33 0.86h0.18l0.070-0.2h0.34l0.070 0.2h0.19l-0.34-0.86h-0.18zM19.7 28.98l0.1-0.32 0.12 0.32h-0.22zM21.81 29h0.2v0.11c-0.055 0.043-0.124 0.069-0.2 0.070h-0.010c-0.002 0-0.003 0-0.005 0-0.067 0-0.126-0.031-0.165-0.080l-0-0c-0.038-0.056-0.060-0.125-0.060-0.199 0-0 0-0.001 0-0.001v0-0.020c0-0.19 0.080-0.28 0.24-0.28h0.020c0.080 0 0.15 0.050 0.18 0.13l0.17-0.030c-0.040-0.17-0.16-0.25-0.37-0.25h-0.010c-0.11 0-0.21 0.040-0.29 0.1-0.076 0.074-0.123 0.178-0.123 0.293 0 0.017 0.001 0.033 0.003 0.049l-0-0.002c0 0.11 0.030 0.23 0.11 0.32 0.080 0.070 0.18 0.12 0.3 0.12h0.030c0.13 0 0.26-0.040 0.36-0.14v-0.33h-0.37v0.14zM23.96 28.46h-0.17v0.86h0.6v-0.15h-0.43v-0.7zM25.77 28.46h-0.17v0.86h0.17v-0.86zM27.54 29.030l-0.35-0.57h-0.17v0.86h0.16v-0.56l0.35 0.56h0.17v-0.86h-0.16v0.57zM29.14 28.94h0.43v-0.14h-0.43v-0.2h0.45v-0.14h-0.63v0.86h0.66v-0.15h-0.48v-0.23zM33.020 28.8h-0.34v-0.34h-0.17v0.86h0.17v-0.38h0.34v0.38h0.17v-0.86h-0.17v0.34zM34.62 28.94h0.44v-0.14h-0.43v-0.2h0.46v-0.14h-0.63v0.86h0.64v-0.15h-0.47v-0.23zM36.82 28.94c0.14-0.020 0.21-0.1 0.21-0.24v-0.020c0-0.065-0.031-0.123-0.080-0.16l-0.001-0c-0.063-0.036-0.139-0.058-0.219-0.060h-0.391v0.86h0.17v-0.36h0.030c0.040 0 0.080 0 0.11 0.020s0.050 0.040 0.060 0.070l0.2 0.26h0.2l-0.11-0.16c-0.045-0.086-0.11-0.157-0.188-0.209l-0.002-0.001zM36.64 28.83h-0.13v-0.22h0.14c0.050 0 0.12 0 0.17 0.020 0.034 0.017 0.056 0.051 0.056 0.090s-0.023 0.073-0.056 0.090l-0.001 0c-0.041 0.013-0.088 0.020-0.136 0.020-0.005 0-0.010-0-0.014-0l0.001 0h-0.030zM38.46 28.94h0.43v-0.14h-0.43v-0.2h0.46v-0.14h-0.63v0.86h0.64v-0.15h-0.47v-0.23z"></path>
</symbol>
<symbol id="icon-Logo3" viewBox="0 0 57 32">
<path fill="#afb1b8" style="fill: var(--color4, #afb1b8)" d="M19.41 26.19h0.030l0.020 0.010 0.12 0.12c-0.1 0.090-0.2 0.15-0.33 0.2-0.15 0.060-0.3 0.090-0.46 0.080-0.15 0-0.3-0.020-0.44-0.070-0.241-0.087-0.43-0.266-0.528-0.494l-0.002-0.006c-0.052-0.118-0.082-0.255-0.082-0.4s0.030-0.282 0.084-0.407l-0.003 0.007c0.115-0.237 0.317-0.416 0.563-0.498l0.007-0.002c0.135-0.050 0.292-0.079 0.454-0.079 0.152 0 0.299 0.025 0.435 0.072l-0.009-0.003h-0.010c0.1 0.040 0.22 0.1 0.3 0.18l-0.090 0.11-0.030 0.030c-0.005 0.001-0.010 0.002-0.015 0.002s-0.011-0.001-0.015-0.002l0 0c-0.002 0-0.004 0-0.006 0-0.016 0-0.031-0.004-0.045-0.010l0.001 0-0.050-0.030-0.070-0.040c-0.103-0.051-0.225-0.080-0.354-0.080-0.006 0-0.012 0-0.017 0h-0.039c-0.1 0-0.21 0.010-0.31 0.050-0.19 0.063-0.34 0.2-0.418 0.376l-0.002 0.004c-0.035 0.094-0.056 0.202-0.056 0.315s0.020 0.221 0.058 0.321l-0.002-0.006c0.070 0.19 0.21 0.33 0.4 0.4 0.1 0.020 0.2 0.050 0.3 0.050l0.18-0.020c0.146-0.015 0.277-0.073 0.381-0.161l-0.001 0.001c0.014-0.011 0.031-0.018 0.050-0.020l0-0zM22.77 25.63c0 0.14-0.020 0.26-0.070 0.4-0.113 0.238-0.316 0.418-0.563 0.498l-0.007 0.002c-0.28 0.1-0.6 0.1-0.88 0-0.135-0.046-0.252-0.114-0.351-0.201l0.001 0.001c-0.088-0.083-0.159-0.183-0.208-0.294l-0.002-0.006v-0.010c-0.051-0.116-0.081-0.252-0.081-0.395s0.030-0.279 0.084-0.401l-0.003 0.006c0.055-0.117 0.129-0.217 0.219-0.299l0.001-0.001c0.197-0.168 0.456-0.271 0.738-0.271 0.015 0 0.030 0 0.044 0.001l-0.002-0c0.16 0 0.31 0.020 0.45 0.070 0.373 0.115 0.64 0.457 0.64 0.862 0 0.003 0 0.006-0 0.009v-0 0.030zM22.47 25.63c0-0.11-0.020-0.22-0.050-0.32-0.073-0.179-0.217-0.316-0.395-0.379l-0.005-0.001c-0.097-0.034-0.209-0.053-0.325-0.053s-0.228 0.019-0.332 0.055l0.007-0.002c-0.093 0.035-0.173 0.086-0.24 0.15l0-0c-0.069 0.063-0.123 0.139-0.158 0.226l-0.002 0.004c-0.033 0.095-0.053 0.205-0.053 0.32s0.019 0.225 0.055 0.327l-0.002-0.007c0.070 0.18 0.21 0.32 0.4 0.38 0.2 0.070 0.44 0.070 0.64 0 0.1-0.040 0.18-0.080 0.25-0.15 0.068-0.063 0.122-0.14 0.158-0.226l0.002-0.004c0.030-0.11 0.050-0.22 0.050-0.32zM25.070 25.96l0.030 0.070 0.030-0.070 0.040-0.070 0.74-1.17 0.040-0.040h0.28v1.9h-0.26v-1.52l-0.74 1.19c-0.012 0.018-0.029 0.032-0.049 0.040l-0.001 0c-0.015 0.007-0.032 0.010-0.051 0.010-0.003 0-0.006-0-0.010-0l0 0h-0.12c-0.017-0.009-0.031-0.023-0.040-0.040l-0-0-0.77-1.2v1.53h-0.25v-1.9h0.28c0.020 0 0.030 0.020 0.040 0.030l0.76 1.18 0.040 0.070zM27.87 25.86v0.72h-0.3v-1.9h0.65c0.12 0 0.24 0 0.36 0.040 0.1 0.020 0.18 0.060 0.26 0.11 0.060 0.060 0.11 0.12 0.15 0.19 0.030 0.080 0.050 0.16 0.040 0.25 0 0.17-0.080 0.33-0.2 0.43-0.075 0.062-0.166 0.107-0.266 0.129l-0.004 0.001c-0.1 0.030-0.21 0.040-0.34 0.040h-0.36zM27.87 25.66h0.34c0.080 0 0.16 0 0.23-0.030 0.061-0.018 0.114-0.046 0.161-0.081l-0.001 0.001c0.080-0.068 0.13-0.169 0.13-0.282 0-0.003-0-0.006-0-0.009v0-0.020c0-0.050 0-0.1-0.020-0.13-0.025-0.051-0.058-0.095-0.099-0.13l-0.001-0c-0.097-0.064-0.216-0.102-0.344-0.102-0.020 0-0.039 0.001-0.058 0.003l0.002-0h-0.35v0.78zM31.77 26.58h-0.23c-0.023 0-0.044-0.008-0.060-0.020l0 0c-0.016-0.010-0.030-0.024-0.040-0.039l-0-0.001-0.2-0.46h-0.99l-0.2 0.46c-0.016 0.036-0.051 0.060-0.092 0.060-0.003 0-0.006-0-0.009-0l0 0h-0.25l0.88-1.91h0.3l0.88 1.9zM30.33 25.88h0.82l-0.34-0.78c-0.025-0.047-0.049-0.104-0.068-0.162l-0.002-0.008v-0.010l-0.030 0.1-0.030 0.080-0.35 0.77zM33.030 24.68l0.040 0.040 1.28 1.44v-1.49h0.25v1.91h-0.14l-0.060-0.010c-0.020-0.010-0.036-0.024-0.050-0.040l-0-0-1.27-1.44v1.5h-0.26v-1.92h0.16l0.050 0.010zM36.75 25.82v0.76h-0.3v-0.76l-0.8-1.15h0.27c0.023 0 0.044 0.008 0.060 0.020l-0-0 0.040 0.040 0.5 0.75 0.080 0.16 0.1-0.16 0.49-0.75c0.012-0.015 0.025-0.028 0.039-0.040l0.001-0c0.017-0.012 0.037-0.020 0.060-0.020v0h0.27l-0.82 1.16zM24.92 21.47l0.39 0.030c1.933-0.746 3.542-1.972 4.731-3.534l0.019-0.026 0.020-0.030c1.061-1.406 1.7-3.184 1.7-5.11 0-0.004 0-0.007 0-0.011v0.001-0.16l-2.17-1.87c0.144 0.621 0.226 1.334 0.226 2.066 0 1.399-0.3 2.727-0.84 3.925l0.024-0.060c-0.9 1.99-2.31 3.6-4.050 4.76l-0.050 0.020z"></path>
<path fill="#afb1b8" style="fill: var(--color4, #afb1b8)" d="M24.15 21.39h0.060c1.907-1.164 3.396-2.846 4.293-4.851l0.027-0.069c0.485-1.076 0.768-2.333 0.768-3.656 0-0.925-0.138-1.817-0.395-2.658l0.017 0.064 0.010 0.070-3.080-2.67c0.964 1.633 1.533 3.599 1.533 5.697 0 0.512-0.034 1.017-0.1 1.511l0.006-0.058v-0.060c-0.35 2.6-1.48 4.9-3.15 6.68zM34.6 14.84c-0.6 2.18-1.89 4-3.6 5.26l-0.030 0.020c-0.53 0.4-1.1 0.76-1.72 1.070 1.535-0.39 2.875-1.067 4.022-1.977l-0.022 0.017c1.088-0.865 1.958-1.956 2.547-3.206l0.023-0.054 0.030-0.050-1.25-1.080z"></path>
<path fill="#afb1b8" style="fill: var(--color4, #afb1b8)" d="M34.1 14.54l-1.77-1.55c-0.049 1.888-0.679 3.621-1.717 5.035l0.017-0.025 0.030-0.020c-1.102 1.514-2.546 2.715-4.223 3.502l-0.067 0.028-0.060 0.030c0.4 0 0.8-0.030 1.2-0.060 1.7-0.6 3.13-1.54 4.3-2.75 1.084-1.114 1.883-2.51 2.277-4.068l0.013-0.062v-0.060zM24.41 6.49l-2.11-1.85c-1.9 0.62-3.49 1.74-4.68 3.2l-0.010 0.010c-1.092 1.341-1.757 3.066-1.77 4.947v0.003c0.023 2.086 0.837 3.978 2.155 5.395l-0.005-0.005c1.413 1.52 3.269 2.61 5.362 3.067l0.068 0.013 0.070 0.010c1.833-1.885 3.033-4.395 3.248-7.18l0.002-0.040v-0.040l0.020-0.64c0-2.6-0.88-5-2.36-6.92l0.020 0.030zM39.010 14.26c-0.043-2.482-1.179-4.69-2.947-6.169l-0.013-0.011c-1.877-1.598-4.329-2.57-7.008-2.57-0.004 0-0.008 0-0.013 0h-0.079c-1.23 0-2.45 0.2-3.6 0.6l12.99 11.27c0.42-0.92 0.67-2 0.67-3.12z"></path>
</symbol>
<symbol id="icon-Logo4" viewBox="0 0 57 32">
<path fill="#2196f3" style="fill: var(--color2, #2196f3)" d="M12.88 11.25c-1.28 0-2.32 0.93-2.32 2.060 0 1.14 1.040 2.060 2.31 2.060 1.29 0 2.33-0.92 2.33-2.060 0-1.13-1.040-2.060-2.32-2.060zM29.98 10.6c-0.010-1.58-0.72-3.1-1.98-4.22-1.242-1.081-2.876-1.74-4.664-1.74-0.006 0-0.011 0-0.017 0h-0.049c-1.78 0-3.48 0.63-4.74 1.75-1.189 1.023-1.944 2.521-1.97 4.196l-0 0.004v8.71s13.41-1.33 13.41-8.7zM5.86 22.16c0 1.1 0.5 2.15 1.37 2.93 0.865 0.752 2.002 1.21 3.246 1.21 0.005 0 0.010 0 0.014-0h0.029c1.24 0 2.42-0.43 3.3-1.21 0.828-0.714 1.354-1.759 1.37-2.927l0-0.003v-6.050s-9.33 0.92-9.33 6.050zM10.52 23.24c-0.006 0-0.013 0-0.020 0-0.243 0-0.471-0.067-0.666-0.183l0.006 0.003c-0.2-0.11-0.35-0.28-0.44-0.48-0.061-0.122-0.096-0.266-0.096-0.418 0-0.079 0.009-0.155 0.027-0.228l-0.001 0.007c0.040-0.2 0.15-0.4 0.33-0.55 0.17-0.15 0.38-0.25 0.62-0.3 0.24-0.030 0.48-0.010 0.7 0.070s0.42 0.22 0.56 0.4c0.128 0.166 0.205 0.377 0.205 0.606 0 0.306-0.137 0.579-0.353 0.763l-0.001 0.001c-0.223 0.199-0.519 0.32-0.843 0.32-0.009 0-0.019-0-0.028-0l0.001 0zM19.95 22.64h-0.9v0.94h-0.47v-2.28h1.48v0.38h-1.010v0.59h0.9v0.38zM22.2 22.49c0 0.23-0.040 0.42-0.12 0.59-0.145 0.315-0.457 0.53-0.82 0.53h-0.060c-0.001 0-0.003 0-0.004 0-0.359 0-0.669-0.21-0.814-0.515l-0.002-0.005c-0.076-0.161-0.12-0.35-0.12-0.55 0-0 0-0 0-0v0-0.14c0-0.23 0.040-0.43 0.13-0.6 0.147-0.313 0.458-0.527 0.82-0.53h0.030c0.18 0 0.35 0.050 0.5 0.14 0.14 0.1 0.26 0.23 0.34 0.4 0.080 0.16 0.12 0.36 0.12 0.59v0.1zM21.72 22.39c0.002-0.024 0.003-0.053 0.003-0.082 0-0.172-0.046-0.334-0.126-0.473l0.002 0.005c-0.077-0.109-0.203-0.18-0.345-0.18-0.002 0-0.004 0-0.006 0h-0.020c-0.16 0-0.28 0.060-0.36 0.18s-0.13 0.3-0.13 0.54v0.11c0 0.23 0.040 0.41 0.13 0.54s0.2 0.2 0.37 0.2c0.15 0 0.27-0.070 0.36-0.19s0.12-0.3 0.12-0.54v-0.11zM23.72 22.99c0-0.1-0.030-0.17-0.1-0.21-0.1-0.070-0.2-0.12-0.33-0.15-0.16-0.050-0.3-0.1-0.39-0.16-0.25-0.14-0.39-0.33-0.39-0.56 0-0.13 0.040-0.24 0.11-0.33s0.17-0.17 0.3-0.23c0.125-0.052 0.271-0.082 0.423-0.082 0.162 0 0.315 0.034 0.454 0.095l-0.007-0.003c0.237 0.104 0.4 0.336 0.4 0.607 0 0.001 0 0.002 0 0.004v-0h-0.47c0-0.005 0-0.010 0-0.016 0-0.089-0.039-0.169-0.1-0.224l-0-0c-0.068-0.055-0.155-0.089-0.25-0.090h-0.050c-0.090 0-0.17 0.030-0.24 0.080-0.061 0.042-0.1 0.111-0.1 0.19 0 0 0 0 0 0v0c0 0.080 0.040 0.13 0.12 0.19 0.070 0.050 0.18 0.1 0.33 0.14 0.26 0.080 0.45 0.18 0.58 0.3 0.111 0.109 0.18 0.261 0.18 0.429 0 0.004-0 0.008-0 0.012v-0.001c0 0.2-0.070 0.35-0.22 0.46s-0.35 0.17-0.6 0.17h-0.020c-0.17 0-0.33-0.030-0.47-0.1-0.257-0.099-0.437-0.343-0.44-0.63v-0.010h0.47c0 0.25 0.16 0.37 0.46 0.37 0.1 0 0.2-0.020 0.26-0.060 0.060-0.060 0.090-0.11 0.090-0.2zM26.22 21.68h-0.7v1.9h-0.46v-1.9h-0.7v-0.37h1.86v0.37zM27.86 22.58h-0.9v0.62h1.060v0.37h-1.52v-2.27h1.52v0.38h-1.050v0.54h0.9v0.37zM29.14 22.75h-0.38v0.83h-0.47v-2.28h0.85c0.26 0 0.47 0.060 0.62 0.18 0.14 0.12 0.21 0.3 0.21 0.51 0 0.16-0.030 0.28-0.1 0.39-0.072 0.109-0.174 0.193-0.296 0.239l-0.004 0.001 0.5 0.94v0.020h-0.51l-0.43-0.83zM28.76 22.36h0.38c0.11 0 0.2-0.020 0.27-0.080 0.060-0.060 0.1-0.14 0.1-0.23v-0.020c0-0.1-0.030-0.2-0.1-0.25-0.060-0.070-0.15-0.1-0.27-0.1h-0.38v0.68zM31.6 22.77v0.8h-0.47v-2.27h0.89c0.17 0 0.32 0.030 0.45 0.1 0.13 0.060 0.23 0.15 0.3 0.26 0.070 0.12 0.1 0.25 0.1 0.4 0 0.22-0.070 0.4-0.23 0.53-0.157 0.114-0.353 0.182-0.566 0.182-0.023 0-0.045-0.001-0.067-0.002l0.003 0h-0.4zM31.6 22.4h0.42c0.005 0 0.010 0 0.015 0 0.102 0 0.195-0.038 0.265-0.101l-0 0c0.070-0.050 0.1-0.14 0.1-0.24v-0.010c0-0.1-0.040-0.2-0.1-0.26-0.066-0.062-0.155-0.1-0.253-0.1-0.002 0-0.005 0-0.007 0h-0.44v0.7zM34.57 22.6h-0.9v0.6h1.050v0.37h-1.52v-2.27h1.52v0.38h-1.050v0.54h0.9v0.37zM36.74 21.68h-0.7v1.9h-0.47v-1.9h-0.68v-0.37h1.85v0.37zM38.38 22.59h-0.9v0.61h1.050v0.37h-1.53v-2.27h1.52v0.38h-1.020v0.54h0.9v0.37zM39.65 22.75h-0.37v0.83h-0.47v-2.28h0.84c0.27 0 0.49 0.060 0.63 0.18s0.21 0.3 0.21 0.51c0 0.16-0.030 0.28-0.1 0.39-0.074 0.107-0.176 0.19-0.296 0.238l-0.004 0.002 0.5 0.94v0.020h-0.51l-0.43-0.83zM39.27 22.36h0.38c0.12 0 0.22-0.020 0.28-0.080s0.1-0.14 0.1-0.23v-0.020c0-0.1-0.040-0.2-0.1-0.25-0.050-0.070-0.15-0.1-0.28-0.1h-0.37v0.68zM42.030 22.98c0-0.090-0.030-0.16-0.1-0.2-0.090-0.060-0.2-0.12-0.32-0.15-0.17-0.050-0.3-0.1-0.4-0.16-0.25-0.14-0.38-0.33-0.38-0.56 0-0.13 0.030-0.24 0.1-0.33 0.070-0.1 0.17-0.17 0.3-0.23 0.125-0.050 0.271-0.080 0.423-0.080 0.161 0 0.315 0.033 0.455 0.093l-0.008-0.003c0.237 0.104 0.4 0.336 0.4 0.607 0 0.001 0 0.002 0 0.004v-0h-0.47c0-0.1-0.030-0.18-0.1-0.24-0.068-0.055-0.155-0.089-0.25-0.090h-0.050c-0.090 0-0.17 0.030-0.24 0.080-0.061 0.042-0.1 0.111-0.1 0.19 0 0 0 0 0 0v0c0 0.080 0.040 0.13 0.11 0.19 0.080 0.050 0.19 0.1 0.34 0.14 0.27 0.080 0.46 0.18 0.58 0.3s0.18 0.26 0.18 0.44c0 0.2-0.070 0.35-0.22 0.46s-0.35 0.17-0.6 0.17h-0.020c-0.17 0-0.33-0.030-0.47-0.1-0.257-0.099-0.437-0.343-0.44-0.63v-0.010h0.48c0 0.25 0.14 0.37 0.44 0.37 0.12 0 0.2-0.020 0.27-0.060 0.060-0.060 0.1-0.11 0.1-0.2z"></path>
</symbol>
<symbol id="icon-Logo5" viewBox="0 0 57 32">
<path fill="#afb1b8" style="fill: var(--color4, #afb1b8)" d="M14.27 23.86c0.13 0.15 0.2 0.33 0.2 0.52 0 0.008 0.001 0.017 0.001 0.027 0 0.122-0.030 0.236-0.082 0.337l0.002-0.004c-0.054 0.118-0.128 0.218-0.219 0.299l-0.001 0.001c-0.26 0.17-0.57 0.26-0.89 0.24h-1.55v-3.3h1.52l0.080-0.010c0.29 0 0.55 0.090 0.77 0.23 0.177 0.14 0.29 0.356 0.29 0.598 0 0.008-0 0.016-0 0.024l0-0.001c0 0.009 0.001 0.020 0.001 0.031 0 0.181-0.069 0.346-0.181 0.47l0.001-0.001c-0.118 0.131-0.276 0.224-0.455 0.259l-0.005 0.001c0.2 0.030 0.39 0.13 0.52 0.28zM12.46 23.36h0.64c0.15 0.010 0.3-0.030 0.42-0.1 0.050-0.050 0.080-0.1 0.1-0.16 0.020-0.041 0.031-0.089 0.031-0.14 0-0.010-0.001-0.021-0.001-0.031l0 0.001c0.003-0.016 0.004-0.034 0.004-0.053 0-0.046-0.009-0.090-0.025-0.13l0.001 0.002c-0.024-0.055-0.058-0.101-0.1-0.14l-0-0c-0.104-0.071-0.232-0.114-0.37-0.114-0.025 0-0.049 0.001-0.073 0.004l0.003-0h-0.64v0.86zM13.58 24.63c0.092-0.078 0.15-0.193 0.15-0.322 0-0.006-0-0.013-0-0.019l0 0.001v-0.020c-0.003-0.13-0.065-0.244-0.159-0.319l-0.001-0.001c-0.111-0.075-0.248-0.12-0.395-0.12-0.002 0-0.004 0-0.005 0h-0.71v0.91h0.7c0.15 0.010 0.3-0.030 0.42-0.12zM17.38 25.28l-0.85-1.3h-0.32v1.3h-0.72v-3.3h1.37l0.1-0.010c0.33 0 0.63 0.1 0.87 0.29 0.199 0.182 0.324 0.443 0.324 0.733 0 0.239-0.085 0.458-0.226 0.629l0.001-0.002c-0.17 0.18-0.4 0.3-0.66 0.34l0.9 1.32h-0.8zM16.21 23.54h0.6c0.4 0 0.61-0.16 0.61-0.5v-0.020c-0.005-0.139-0.065-0.262-0.16-0.35l-0-0c-0.11-0.085-0.248-0.138-0.399-0.14h-0.661v1zM21.34 24.61h-1.45l-0.25 0.67h-0.77l1.34-3.27h0.82l1.32 3.27h-0.76l-0.26-0.67zM21.14 24.11l-0.53-1.39-0.52 1.4h1.060zM26.3 25.28h-0.72l-1.61-2.25v2.24h-0.72v-3.3h0.72l1.62 2.27v-2.26h0.72v3.3zM30.42 24.48c-0.15 0.26-0.38 0.46-0.66 0.6-0.31 0.14-0.66 0.2-1 0.2h-1.29v-3.3h1.28c0.35-0.010 0.7 0.060 1.020 0.2 0.27 0.13 0.5 0.33 0.65 0.58 0.142 0.249 0.226 0.547 0.226 0.865s-0.084 0.616-0.23 0.874l0.005-0.009zM29.59 24.41c0.2-0.22 0.32-0.5 0.32-0.79s-0.11-0.57-0.32-0.79c-0.22-0.171-0.5-0.273-0.804-0.273-0.034 0-0.067 0.001-0.1 0.004l0.004-0h-0.5v2.13h0.5c0.33 0.020 0.65-0.080 0.9-0.28zM21.79 3.61s9.3 3.21 9.1 7.87v7.87s-9.29-3.22-9.1-7.87v-7.88zM39.18 17.51c1.667-1.069 3.657-1.785 5.795-1.996l0.055-0.004h0.060v-2.46c-2.431 0.856-4.444 2.394-5.865 4.383l-0.025 0.037-0.020 0.040z"></path>
<path fill="#afb1b8" style="fill: var(--color4, #afb1b8)" d="M38.12 18.24c1.516-2.662 3.916-4.673 6.793-5.654l0.087-0.026 0.090-0.030v-7.1s-13.25 4.59-12.97 11.21v11.2s0.59-0.2 1.52-0.59c0-0.36 0-0.72 0.050-1.080 0.33-3.232 1.97-6.027 4.374-7.88l0.026-0.020 0.030-0.030z"></path>
<path fill="#afb1b8" style="fill: var(--color4, #afb1b8)" d="M36.86 22.4c0.070-0.77 0.23-1.54 0.47-2.29-1.667 1.768-2.718 4.134-2.8 6.744l-0 0.016v0.010c0.74-0.33 1.62-0.74 2.54-1.23-0.155-0.684-0.245-1.469-0.245-2.275 0-0.343 0.016-0.683 0.048-1.018l-0.003 0.043zM37.39 22.45c-0.090 0.98-0.030 1.97 0.16 2.93 3.62-1.98 7.69-5.040 7.53-8.75v-0.32c-2.665 0.265-5.039 1.341-6.915 2.973l0.015-0.013 0.020-0.010c-0.42 0.93-0.7 2.010-0.8 3.15v0.040z"></path>
</symbol>
<symbol id="icon-Logo6" viewBox="0 0 57 32">
<path fill="#afb1b8" style="fill: var(--color4, #afb1b8)" d="M28.5 14.61c-0.208-0.262-0.333-0.598-0.333-0.963 0-0.034 0.001-0.068 0.003-0.101l-0 0.005v-1.53c0-0.47 0.1-0.83 0.32-1.070s0.59-0.37 1.1-0.37c0.49 0 0.84 0.1 1.040 0.31 0.23 0.27 0.34 0.6 0.31 0.92v0.36h-0.87v-0.36c0-0.13 0-0.24-0.030-0.36-0.015-0.085-0.058-0.158-0.119-0.21l-0.001-0c-0.078-0.055-0.175-0.089-0.28-0.090h-0.070c-0.113 0.002-0.217 0.039-0.302 0.101l0.002-0.001c-0.073 0.057-0.126 0.136-0.149 0.227l-0.001 0.003c-0.020 0.12-0.030 0.25-0.030 0.37v1.87c-0.020 0.18 0.020 0.36 0.1 0.53 0.081 0.096 0.202 0.156 0.336 0.156 0.026 0 0.052-0.002 0.076-0.007l-0.003 0h0.040c0.1 0 0.2-0.030 0.27-0.080 0.068-0.057 0.116-0.137 0.13-0.228l0-0.002c0.020-0.12 0.030-0.25 0.030-0.37v-0.39h0.87v0.35c0.020 0.34-0.080 0.68-0.3 0.97-0.2 0.22-0.55 0.34-1.050 0.34s-0.88-0.13-1.1-0.38zM32.14 14.64c-0.22-0.25-0.33-0.6-0.33-1.060v-1.61c0-0.46 0.1-0.8 0.33-1.040 0.22-0.24 0.59-0.35 1.1-0.35 0.52 0 0.89 0.11 1.1 0.35 0.23 0.23 0.34 0.58 0.34 1.040v1.61c0 0.46-0.1 0.8-0.33 1.050-0.23 0.24-0.59 0.36-1.1 0.36s-0.9-0.12-1.11-0.36zM33.65 14.24c0.070-0.125 0.111-0.274 0.111-0.433 0-0.016-0-0.033-0.001-0.049l0 0.002v-1.96c0.001-0.019 0.002-0.041 0.002-0.063 0-0.149-0.038-0.289-0.105-0.411l0.002 0.005c-0.046-0.058-0.107-0.103-0.177-0.129l-0.003-0.001c-0.052-0.021-0.112-0.033-0.175-0.033-0.019 0-0.038 0.001-0.057 0.003l0.002-0h-0.070c-0.001 0-0.002 0-0.003 0-0.060 0-0.117 0.011-0.17 0.031l0.003-0.001c-0.072 0.028-0.133 0.073-0.179 0.129l-0.001 0.001c-0.064 0.125-0.101 0.272-0.101 0.428 0 0.015 0 0.029 0.001 0.044l-0-0.002v1.98c-0.010 0.16 0.020 0.34 0.1 0.48 0.11 0.1 0.256 0.161 0.417 0.161 0.080 0 0.157-0.015 0.227-0.043l-0.004 0.001c0.070-0.030 0.13-0.070 0.18-0.12l-0 0zM35.73 10.62h0.95l0.7 3 0.73-3h0.92l0.090 4.31h-0.68l-0.070-2.99-0.7 3h-0.55l-0.73-3.010-0.060 3h-0.69l0.090-4.3zM40.18 10.62h1.46c0.85 0 1.27 0.42 1.27 1.23 0 0.78-0.44 1.17-1.33 1.17h-0.5v1.91h-0.9v-4.3zM41.43 12.47c0.090 0 0.18 0 0.27-0.020 0.088-0.029 0.164-0.070 0.232-0.121l-0.002 0.001c0.083-0.114 0.133-0.257 0.133-0.411 0-0.024-0.001-0.048-0.004-0.072l0 0.003c0-0.14-0.010-0.27-0.040-0.4-0.033-0.088-0.097-0.159-0.178-0.199l-0.002-0.001c-0.107-0.045-0.231-0.071-0.361-0.071-0.017 0-0.034 0-0.051 0.001l0.002-0h-0.35v1.3h0.35zM44.21 10.62h0.98l1 4.31h-0.85l-0.2-0.99h-0.86l-0.2 1h-0.86l1-4.32zM45.050 13.44l-0.34-1.8-0.34 1.8h0.68zM47 10.62h0.63l1.21 2.46v-2.45h0.76v4.3h-0.6l-1.22-2.56v2.56h-0.78v-4.3zM51.36 13.29l-1.010-2.66h0.85l0.61 1.7 0.58-1.7h0.83l-1 2.67v1.63h-0.87v-1.63zM29.89 16.82v0.22h-0.74v1.75h-0.3v-1.75h-0.75v-0.22h1.8zM32.21 18.8h-0.24c-0.027-0-0.052-0.012-0.070-0.030l-0-0c-0.017-0.009-0.031-0.023-0.040-0.040l-0-0-0.21-0.47h-1.030l-0.2 0.47-0.040 0.050c-0.017 0.012-0.037 0.020-0.060 0.020h-0.25l0.9-1.97h0.33l0.9 1.96zM30.71 18.060h0.85l-0.36-0.8c-0.021-0.049-0.042-0.109-0.058-0.171l-0.002-0.009v-0.010l-0.040 0.1-0.030 0.090-0.36 0.8zM33.77 18.6h0.17c0.1 0 0.2-0.030 0.29-0.060h-0.010l0.12-0.050v-0.44h-0.36c-0.020 0-0.040 0-0.050-0.020l-0.010-0.010-0.010-0.020v-0.15h0.7v0.75c-0.17 0.11-0.38 0.18-0.6 0.2l-0.27 0.020c-0.16 0-0.31-0.030-0.46-0.080-0.263-0.081-0.473-0.266-0.587-0.504l-0.002-0.006c-0.057-0.122-0.090-0.264-0.090-0.415 0-0.002 0-0.004 0-0.006v0-0.030c-0-0.003-0-0.008-0-0.012 0-0.276 0.124-0.522 0.319-0.687l0.001-0.001c0.1-0.080 0.23-0.15 0.36-0.2 0.14-0.047 0.301-0.075 0.468-0.075 0.096 0 0.19 0.009 0.281 0.026l-0.009-0.001c0.14 0.020 0.28 0.060 0.4 0.13l0.16 0.1-0.1 0.12c0 0.010-0.010 0.020-0.030 0.020-0.008 0.008-0.018 0.015-0.029 0.020l-0.001 0-0.060-0.020c-0.165-0.101-0.364-0.16-0.577-0.16-0.001 0-0.002 0-0.003 0h-0.040c-0.12 0-0.24 0.020-0.34 0.060-0.192 0.068-0.345 0.207-0.428 0.385l-0.002 0.005c-0.038 0.098-0.060 0.211-0.060 0.33s0.022 0.232 0.062 0.336l-0.002-0.006c0.126 0.271 0.396 0.455 0.709 0.455 0.032 0 0.064-0.002 0.095-0.006l-0.004 0zM36.67 18.56h0.98v0.23h-1.3v-1.97h0.32v1.75zM38.67 18.8h-0.3v-1.98h0.3v1.98zM39.83 16.83c0.020 0 0.040 0.020 0.050 0.030l1.32 1.5v-1.56h0.27v1.99h-0.15c-0.030 0-0.050 0-0.070-0.020-0.019-0.008-0.036-0.018-0.050-0.030l0 0-1.32-1.5v1.55h-0.26v-1.98h0.21zM43.76 16.82v0.2h-1.1v0.67h0.89v0.2h-0.9v0.68h1.1v0.21h-1.41v-1.96h1.42zM11.29 4.62l13.76 3.37v11.82l-13.76-3.37v-11.82zM10.4 3.6v13.41l15.51 3.81v-13.4l-15.51-3.82z"></path>
<path fill="#afb1b8" style="fill: var(--color4, #afb1b8)" d="M18.72 27.040l-15.52-3.82v-13.4l15.52 3.82v13.4z"></path>
<path fill="#afb1b8" style="fill: var(--color4, #afb1b8)" d="M10.66 4.46l13.58 3.34-5.78 4.98-13.56-3.33 5.77-4.99zM10.4 3.61l-7.2 6.22 15.52 3.8 7.2-6.22-15.52-3.8zM19.6 26.28l6.33-5.46-6.34-1.56v7.020z"></path>
</symbol>
<symbol id="icon-smartphone" viewBox="0 0 20 32">
<path fill="#757575" style="fill: var(--color5, #757575)" d="M17 0h-14c-1.657 0-3 1.343-3 3v0 26c0 1.657 1.343 3 3 3v0h14c1.657 0 3-1.343 3-3v0-26c0-1.657-1.343-3-3-3v0zM3 2h14c0.56 0 1 0.44 1 1v21h-16v-21c0-0.56 0.44-1 1-1zM17 30h-14c-0.552 0-1-0.448-1-1v0-3h16v3c0 0.552-0.448 1-1 1v0z"></path>
<path fill="#757575" style="fill: var(--color5, #757575)" d="M4.7 27.48c0.4 0.36 0.4 0.96 0 1.32-0.185 0.166-0.431 0.267-0.7 0.267s-0.515-0.101-0.701-0.268l0.001 0.001c-0.177-0.165-0.288-0.399-0.288-0.66s0.111-0.495 0.288-0.659l0.001-0.001c0.4-0.36 1-0.36 1.4 0z"></path>
</symbol>
<symbol id="icon-twitter-1" viewBox="0 0 32 32">
<path fill="#fff" style="fill: var(--color3, #fff)" d="M32 6.080c-1.18 0.53-2.46 0.86-3.78 1.040 1.362-0.814 2.383-2.079 2.867-3.584l0.013-0.046c-1.198 0.711-2.59 1.264-4.068 1.583l-0.092 0.017c-1.2-1.311-2.919-2.131-4.83-2.131-3.612 0-6.54 2.928-6.54 6.54 0 0.014 0 0.029 0 0.043v-0.002c0 0.54 0.060 1.060 0.18 1.56v-0.040c-5.452-0.275-10.249-2.864-13.464-6.797l-0.026-0.033-0.030-0.040c-0.558 0.948-0.888 2.089-0.888 3.306 0 2.25 1.126 4.238 2.846 5.429l0.022 0.014 0.020 0.020c-1.090-0.020-2.107-0.315-2.991-0.816l0.031 0.016v0.060c0 3.2 2.27 5.84 5.26 6.45-0.513 0.148-1.103 0.233-1.712 0.233-0.46 0-0.908-0.048-1.34-0.14l0.042 0.007 0.040 0.010c0.881 2.616 3.278 4.482 6.121 4.56l0.009 0h0.010c-2.212 1.765-5.049 2.832-8.135 2.832-0.576 0-1.144-0.037-1.7-0.109l0.066 0.007h0.070c2.811 1.849 6.257 2.95 9.96 2.95 0.014 0 0.028 0 0.042-0h0.068c12.080 0 18.67-10 18.67-18.67 0-0.29 0-0.58-0.030-0.85 1.299-0.935 2.392-2.063 3.26-3.353l0.030-0.047z"></path>
</symbol>
</defs>
</svg>
