<svg xmlns="http://www.w3.org/2000/svg" width="32" height="32"><path fill="#fff" d="M31.97 9.4c-.03-1.4-.3-2.73-.76-3.96l.02.08a7.86 7.86 0 0 0-1.85-2.83A7.95 7.95 0 0 0 26.54.85 11.48 11.48 0 0 0 22.67.1h-.01a104.86 104.86 0 0 0-6.69-.1h.1c-4.36 0-4.9.02-6.6.1C7.76.16 6.6.45 5.58.83A8 8 0 0 0 2.75 2.7 8 8 0 0 0 .9 5.52 11.47 11.47 0 0 0 .16 9.4a104.86 104.86 0 0 0-.1 6.69V16c0 4.35 0 4.9.08 6.6.03 1.4.3 2.73.78 3.96l-.02-.08a7.78 7.78 0 0 0 1.85 2.83 8 8 0 0 0 2.83 1.86c1.01.38 2.18.65 3.88.73 1.7.08 2.24.1 6.59.1s4.9-.02 6.6-.1c1.4-.02 2.73-.29 3.96-.76l-.08.03a8.24 8.24 0 0 0 4.67-4.64l.02-.05c.38-1.02.67-2.18.73-3.89.08-1.7.1-2.24.1-6.59 0-4.34 0-4.88-.08-6.6zm-2.88 13.08a8.54 8.54 0 0 1-.55 2.96 5.34 5.34 0 0 1-3 3.03l-.04.01c-.56.22-1.42.48-2.97.54-1.68.08-2.2.1-6.47.1a106.97 106.97 0 0 1-6.7-.1h.24a8.45 8.45 0 0 1-2.96-.54 4.96 4.96 0 0 1-1.84-1.2c-.52-.5-.93-1.1-1.19-1.79l-.01-.03a8.64 8.64 0 0 1-.54-2.98 108.65 108.65 0 0 1-.1-6.55v.09c0-4.28.02-4.79.1-6.47.06-1.57.32-2.4.54-2.97.26-.7.66-1.32 1.2-1.83.5-.52 1.12-.93 1.8-1.19h.04c.56-.23 1.4-.49 2.98-.55 1.68-.08 2.19-.1 6.44-.1 4.3 0 4.8 0 6.47.1 1.57.06 2.4.32 2.97.54.7.26 1.33.66 1.84 1.2.53.51.95 1.14 1.2 1.83.21.57.48 1.42.55 2.97.08 1.68.1 2.2.1 6.47s-.02 4.76-.1 6.46z"/><path fill="#fff" d="M16.06 7.78a8.22 8.22 0 1 0 0 16.44 8.22 8.22 0 1 0 0-16.44zm0 13.55a5.33 5.33 0 1 1 0-10.66 5.33 5.33 0 1 1 0 10.66zM26.53 7.46a1.92 1.92 0 0 1-3.84 0 1.92 1.92 0 0 1 3.84 0z"/></svg>