<svg xmlns="http://www.w3.org/2000/svg" width="57" height="32"><path fill="#afb1b8" d="M26.73 3.16h-1.38.03c-1.94.11-3.84.6-5.6 1.44l-.23.1v11.82l.54-.18c1.73-.63 3.72-1 5.8-1.02h.01v1.55l-.56.01h-.05c-2.69.15-5.17.9-7.37 2.1l.1-.04V3.79a15.5 15.5 0 0 1 4.04-1.67l.1-.02c1.18-.31 2.53-.5 3.91-.5h.24c.97 0 1.91.13 2.81.36l-.08-.01v1.53c-.54-.14-1.19-.24-1.85-.29h-.07l-.4-.03zm2.68 1.56a16.44 16.44 0 0 0 5.28-.51l-.12.02c1.5-.38 2.82-.9 4.04-1.58l-.08.04v14.88c-1.2.7-2.58 1.29-4.05 1.66l-.1.03c-1.29.32-2.6.5-3.92.5h-.09c-1.02 0-2.01-.13-2.96-.37l.08.02V4.44c.56.13 1.21.23 1.89.28h.03zm7.58.12-.54.18a17.9 17.9 0 0 1-7.02 1h.05l-.44-.03v12.14l.37.04a14.35 14.35 0 0 0 4.69-.43l-.1.01c1.05-.27 1.97-.6 2.84-1.03l-.09.04.24-.11V4.85zM19.06 24.11a.8.8 0 0 0-.57-.24h-.03a.97.97 0 0 0-.35.07.8.8 0 0 0-.5.78v2.03a.85.85 0 0 0 .28.68c.08.07.17.12.27.14s.2.05.3.05c.47-.01.85-.4.85-.86v-.22h-.54v.18c0 .06 0 .12-.02.18a.31.31 0 0 1-.08.11.37.37 0 0 1-.22.08h-.03a.27.27 0 0 1-.22-.1.48.48 0 0 1-.07-.27v-1.9c0-.1.02-.2.07-.3a.27.27 0 0 1 .22-.12h.04c.1 0 .17.05.23.11.05.08.09.17.09.27v.18h.52V24.75c0-.25-.09-.47-.24-.64zm3.14-.02a.94.94 0 0 0-.92-.16c-.1.03-.2.09-.27.16a.89.89 0 0 0-.28.68v1.93c0 .14.02.28.07.4.05.11.12.2.2.27.09.08.18.14.29.18a.9.9 0 0 0 .63 0 .83.83 0 0 0 .56-.79v-2.03c0-.25-.11-.48-.28-.64zm-.24 2.61v.03c0 .1-.04.2-.11.26a.39.39 0 0 1-.5 0 .34.34 0 0 1-.1-.26v-2c0-.1.04-.18.1-.25a.39.39 0 0 1 .5 0c.07.07.1.16.1.26v1.96zm4.37.87V23.9h-.51l-.67 1.95-.68-1.95h-.5v3.68h.52v-2.24h.01l.51 1.58h.27l.52-1.58v2.24h.53zm2.98-3.41a.68.68 0 0 0-.3-.2c-.1-.04-.23-.06-.36-.06h-.79v3.67h.52v-1.44h.27c.16.01.32-.02.47-.1a.88.88 0 0 0 .4-.59 2.51 2.51 0 0 0-.02-.96v.02a.79.79 0 0 0-.19-.35zm-.26 1.12c-.01.06-.03.13-.06.19-.03.05-.07.1-.13.13a.52.52 0 0 1-.23.05h-.26V24.4h.27c.09 0 .16 0 .24.04.05.03.1.08.12.14.03.06.05.13.05.2v.5zm2.74-1.38h-.43l-.8 3.67h.52l.16-.78h.7l.17.78h.51l-.82-3.67zm-.48 2.38.26-1.33.26 1.33h-.52zm3.86-.17-.8-2.21h-.5v3.67h.53v-2.2l.8 2.2h.5V23.9h-.53v2.22zm3.2-2.21-.42 1.46-.44-1.46h-.55l.72 2.12v1.55h.53v-1.55l.72-2.12h-.56zM17.6 28.6h.25v.72h.17v-.71h.25v-.15h-.67v.15zm2.12-.14-.33.86h.18l.07-.2h.34l.07.2h.19l-.34-.86h-.18zm-.02.52.1-.32.12.32h-.22zm2.11.02h.2v.11a.33.33 0 0 1-.2.07h-.01a.21.21 0 0 1-.17-.08.36.36 0 0 1-.06-.2v-.02c0-.19.08-.28.24-.28h.02c.08 0 .15.05.18.13l.17-.03c-.04-.17-.16-.25-.37-.25h-.01c-.11 0-.21.04-.29.1a.41.41 0 0 0-.12.34c0 .11.03.23.11.32.08.07.18.12.3.12h.03c.13 0 .26-.04.36-.14v-.33h-.37V29zm2.15-.54h-.17v.86h.6v-.15h-.43v-.7zm1.81 0h-.17v.86h.17v-.86zm1.77.57-.35-.57h-.17v.86h.16v-.56l.35.56h.17v-.86h-.16v.57zm1.6-.09h.43v-.14h-.43v-.2h.45v-.14h-.63v.86h.66v-.15h-.48v-.23zm3.88-.14h-.34v-.34h-.17v.86h.17v-.38h.34v.38h.17v-.86h-.17v.34zm1.6.14h.44v-.14h-.43v-.2h.46v-.14h-.63v.86h.64v-.15h-.47v-.23zm2.2 0c.14-.02.21-.1.21-.24v-.02a.2.2 0 0 0-.08-.16.48.48 0 0 0-.22-.06h-.39v.86h.17v-.36h.03c.04 0 .08 0 .11.02s.05.04.06.07l.2.26h.2l-.11-.16a.56.56 0 0 0-.19-.21zm-.18-.11h-.13v-.22h.14c.05 0 .12 0 .17.02a.1.1 0 0 1 0 .18.47.47 0 0 1-.15.02h-.03zm1.82.11h.43v-.14h-.43v-.2h.46v-.14h-.63v.86h.64v-.15h-.47v-.23z"/></svg>