<svg xmlns="http://www.w3.org/2000/svg" width="57" height="32"><path fill="#afb1b8" d="M20.27 3.73 24 7.27h-6.93v17.16H35.2v-6.56l3.73 3.53V3.73H20.27zm14.77 13.73L24.44 7.42h10.6v10.03zm-3.3 4.46h-11.8V10.39h.83v10.76h10.97v.78zm-9.01 4.8-.44.9-.44-.9h-.36l.64 1.2v.7h.32v-.7l.64-1.2h-.37zm.54 1.9.15-.44h.74l.16.43h.34l-.72-1.89h-.3l-.71 1.9h.35zm.52-1.5.28.79h-.55l.27-.79zm1.74.75a.43.43 0 0 0-.07.23c0 .16.05.3.17.4.1.1.26.14.45.14s.35-.05.48-.15l.1.12h.38l-.28-.32c.1-.15.16-.34.16-.58h-.27c0 .13-.03.25-.09.35l-.36-.43.13-.1c.1-.06.16-.13.2-.2a.42.42 0 0 0-.07-.52.48.48 0 0 0-.33-.11h-.04a.5.5 0 0 0-.34.12.46.46 0 0 0-.14.36c0 .06.02.12.05.19s.08.14.15.23c-.1.08-.2.16-.28.27zm.85.41a.48.48 0 0 1-.3.11h-.01a.3.3 0 0 1-.2-.08.28.28 0 0 1-.1-.2v-.01c0-.11.06-.2.17-.28l.03-.03.41.5zm-.33-.84c-.1-.1-.14-.2-.14-.27s.02-.12.06-.16a.19.19 0 0 1 .13-.06h.01c.06 0 .1.02.15.05.03.03.05.08.05.13 0 .07-.03.13-.08.18l-.04.03-.14.1zm3.08 1.04c.13-.12.2-.28.23-.48h-.33c-.02.13-.06.23-.12.29-.07.06-.16.08-.3.08h-.01a.37.37 0 0 1-.3-.16.82.82 0 0 1-.12-.47v-.16c0-.2.04-.36.12-.46.07-.1.19-.16.33-.16.12 0 .21.03.28.1s.1.15.12.28h.33a.72.72 0 0 0-.22-.48.73.73 0 0 0-.47-.17h-.04c-.16 0-.3.04-.41.11a.73.73 0 0 0-.27.32c-.07.13-.1.3-.1.47v.18c0 .17.03.33.1.46s.15.23.27.3c.11.08.25.11.4.11.2 0 .38-.05.51-.17zm1.94-.27c.06-.15.1-.3.1-.5v-.1c0-.19-.04-.35-.1-.48a.73.73 0 0 0-.67-.44h-.03c-.15 0-.28.04-.4.12s-.21.18-.28.32c-.06.14-.1.3-.1.5v.1c0 .18.04.34.1.48s.16.24.28.32a.81.81 0 0 0 .83 0 .75.75 0 0 0 .27-.32zm-.36-1.07c.08.1.13.27.13.48v.1c0 .21-.04.37-.12.48a.38.38 0 0 1-.32.17h-.04a.4.4 0 0 1-.32-.17.82.82 0 0 1-.12-.49v-.1c0-.2.04-.36.12-.48a.39.39 0 0 1 .34-.16.4.4 0 0 1 .33.16z"/></svg>