<svg xmlns="http://www.w3.org/2000/svg" width="57" height="32"><path fill="#afb1b8" d="M19.41 26.19h.03l.02.01.12.12c-.1.09-.2.15-.33.2-.15.06-.3.09-.46.08-.15 0-.3-.02-.44-.07a.9.9 0 0 1-.53-.5 1.02 1.02 0 0 1 0-.8.96.96 0 0 1 .57-.5 1.35 1.35 0 0 1 .88-.01h-.01c.1.04.22.1.3.18l-.09.11-.03.03a.06.06 0 0 1-.03 0 .1.1 0 0 1-.05-.01l-.05-.03-.07-.04a.82.82 0 0 0-.37-.08h-.04c-.1 0-.21.01-.31.05a.69.69 0 0 0-.42.38.92.92 0 0 0 0 .63c.07.19.21.33.4.4.1.02.2.05.3.05l.18-.02a.7.7 0 0 0 .38-.16.09.09 0 0 1 .05-.02zm3.36-.56c0 .14-.02.26-.07.4a.94.94 0 0 1-.57.5c-.28.1-.6.1-.88 0a1.02 1.02 0 0 1-.35-.2.9.9 0 0 1-.21-.3v-.01a1 1 0 0 1 0-.79.95.95 0 0 1 .22-.3 1.14 1.14 0 0 1 .78-.27c.16 0 .31.02.45.07a.9.9 0 0 1 .64.87v.03zm-.3 0c0-.11-.02-.22-.05-.32a.66.66 0 0 0-.4-.38 1.02 1.02 0 0 0-.65 0 .68.68 0 0 0-.24.15.63.63 0 0 0-.16.23 1 1 0 0 0 0 .64c.07.18.21.32.4.38.2.07.44.07.64 0 .1-.04.18-.08.25-.15a.66.66 0 0 0 .16-.23c.03-.11.05-.22.05-.32zm2.6.33.03.07.03-.07.04-.07.74-1.17.04-.04h.28v1.9h-.26v-1.52l-.74 1.19a.1.1 0 0 1-.05.04.13.13 0 0 1-.06.01h-.04L25 26.3a.1.1 0 0 1-.04-.04l-.77-1.2v1.53h-.25v-1.9h.28c.02 0 .03.02.04.03l.76 1.18.04.07zm2.8-.1v.72h-.3v-1.9h.65c.12 0 .24 0 .36.04.1.02.18.06.26.11.06.06.11.12.15.19.03.08.05.16.04.25 0 .17-.08.33-.2.43a.64.64 0 0 1-.27.13c-.1.03-.21.04-.34.04h-.36zm0-.2h.34c.08 0 .16 0 .23-.03a.5.5 0 0 0 .16-.08.37.37 0 0 0 .13-.29v-.02c0-.05 0-.1-.02-.13a.39.39 0 0 0-.1-.13.63.63 0 0 0-.4-.1h-.35v.78zm3.9.92h-.23a.1.1 0 0 1-.06-.02.12.12 0 0 1-.04-.04l-.2-.46h-.99l-.2.46a.1.1 0 0 1-.1.06H29.7l.88-1.91h.3l.88 1.9zm-1.44-.7h.82l-.34-.78a1.15 1.15 0 0 1-.07-.17v-.01l-.03.1-.03.08-.35.77zm2.7-1.2.04.04 1.28 1.44v-1.49h.25v1.91h-.14l-.06-.01a.16.16 0 0 1-.05-.04l-1.27-1.44v1.5h-.26v-1.92h.16l.05.01zm3.72 1.14v.76h-.3v-.76l-.8-1.15h.27a.1.1 0 0 1 .06.02l.04.04.5.75.08.16.05-.08.05-.08.49-.75a.21.21 0 0 1 .04-.04.1.1 0 0 1 .06-.02h.27l-.82 1.16zm-11.83-4.35.39.03a10.71 10.71 0 0 0 4.75-3.56l.02-.03a8.53 8.53 0 0 0 1.7-5.12v-.16l-2.17-1.87a9.56 9.56 0 0 1-.59 5.93c-.9 1.99-2.31 3.6-4.05 4.76l-.05.02z"/><path fill="#afb1b8" d="M24.15 21.39h.06a10.82 10.82 0 0 0 4.32-4.92 9.09 9.09 0 0 0 .39-6.25l.01.07-3.08-2.67a11.35 11.35 0 0 1 1.44 7.15v-.06c-.35 2.6-1.48 4.9-3.15 6.68zm10.45-6.55c-.6 2.18-1.89 4-3.6 5.26l-.03.02c-.53.4-1.1.76-1.72 1.07a10.6 10.6 0 0 0 4-1.96 8.92 8.92 0 0 0 2.57-3.26l.03-.05-1.25-1.08z"/><path fill="#afb1b8" d="m34.1 14.54-1.77-1.55a8.9 8.9 0 0 1-1.7 5.01l.03-.02a10.93 10.93 0 0 1-4.29 3.53l-.06.03c.4 0 .8-.03 1.2-.06 1.7-.6 3.13-1.54 4.3-2.75a9.02 9.02 0 0 0 2.29-4.13v-.06zm-9.69-8.05L22.3 4.64c-1.9.62-3.49 1.74-4.68 3.2l-.01.01a7.95 7.95 0 0 0-1.77 4.95 8.05 8.05 0 0 0 2.15 5.39 10.34 10.34 0 0 0 5.43 3.08l.07.01a11.6 11.6 0 0 0 3.25-7.22v-.04l.02-.64c0-2.6-.88-5-2.36-6.92l.02.03zm14.6 7.77a8.22 8.22 0 0 0-2.96-6.18 10.84 10.84 0 0 0-7.02-2.57h-.08c-1.23 0-2.45.2-3.6.6l12.99 11.27c.42-.92.67-2 .67-3.12z"/></svg>