<svg xmlns="http://www.w3.org/2000/svg" width="57" height="32"><path fill="#2196f3" d="M12.88 11.25c-1.28 0-2.32.93-2.32 2.06 0 1.14 1.04 2.06 2.31 2.06 1.29 0 2.33-.92 2.33-2.06 0-1.13-1.04-2.06-2.32-2.06zm17.1-.65c-.01-1.58-.72-3.1-1.98-4.22a7.12 7.12 0 0 0-4.68-1.74h-.05c-1.78 0-3.48.63-4.74 1.75a5.64 5.64 0 0 0-1.97 4.2v8.71s13.41-1.33 13.41-8.7zM5.86 22.16c0 1.1.5 2.15 1.37 2.93a4.96 4.96 0 0 0 3.26 1.21h.03c1.24 0 2.42-.43 3.3-1.21a3.93 3.93 0 0 0 1.37-2.93v-6.05s-9.33.92-9.33 6.05zm4.66 1.08a1.3 1.3 0 0 1-.68-.18c-.2-.11-.35-.28-.44-.48a.96.96 0 0 1-.07-.64c.04-.2.15-.4.33-.55.17-.15.38-.25.62-.3.24-.03.48-.01.7.07s.42.22.56.4a1 1 0 0 1-.15 1.37 1.27 1.27 0 0 1-.87.32zm9.43-.6h-.9v.94h-.47V21.3h1.48v.38h-1.01v.59h.9v.38zm2.25-.15c0 .23-.04.42-.12.59a.9.9 0 0 1-.82.53h-.06a.9.9 0 0 1-.82-.52 1.32 1.32 0 0 1-.12-.55v-.14c0-.23.04-.43.13-.6a.91.91 0 0 1 .82-.53h.03c.18 0 .35.05.5.14.14.1.26.23.34.4.08.16.12.36.12.59v.1zm-.48-.1a.95.95 0 0 0-.12-.55.42.42 0 0 0-.35-.18h-.02c-.16 0-.28.06-.36.18s-.13.3-.13.54v.11c0 .23.04.41.13.54s.2.2.37.2c.15 0 .27-.07.36-.19s.12-.3.12-.54v-.11zm2 .6c0-.1-.03-.17-.1-.21-.1-.07-.2-.12-.33-.15-.16-.05-.3-.1-.39-.16-.25-.14-.39-.33-.39-.56 0-.13.04-.24.11-.33s.17-.17.3-.23a1.13 1.13 0 0 1 .87.01.66.66 0 0 1 .4.61h-.47a.3.3 0 0 0-.1-.24.4.4 0 0 0-.25-.09h-.05c-.09 0-.17.03-.24.08a.23.23 0 0 0-.1.19c0 .08.04.13.12.19.07.05.18.1.33.14.26.08.45.18.58.3a.6.6 0 0 1 .18.44c0 .2-.07.35-.22.46s-.35.17-.6.17h-.02c-.17 0-.33-.03-.47-.1a.68.68 0 0 1-.44-.63v-.01h.47c0 .25.16.37.46.37.1 0 .2-.02.26-.06.06-.06.09-.11.09-.2zm2.5-1.31h-.7v1.9h-.46v-1.9h-.7v-.37h1.86v.37zm1.64.9h-.9v.62h1.06v.37H26.5V21.3h1.52v.38h-1.05v.54h.9v.37zm1.28.17h-.38v.83h-.47V21.3h.85c.26 0 .47.06.62.18.14.12.21.3.21.51 0 .16-.03.28-.1.39a.61.61 0 0 1-.3.24l.5.94v.02h-.51l-.43-.83zm-.38-.39h.38c.11 0 .2-.02.27-.08.06-.06.1-.14.1-.23v-.02c0-.1-.03-.2-.1-.25-.06-.07-.15-.1-.27-.1h-.38v.68zm2.84.41v.8h-.47V21.3h.89c.17 0 .32.03.45.1.13.06.23.15.3.26.07.12.1.25.1.4 0 .22-.07.4-.23.53a.97.97 0 0 1-.63.18h-.4zm0-.37h.42a.4.4 0 0 0 .28-.1c.07-.05.1-.14.1-.24v-.01c0-.1-.04-.2-.1-.26a.37.37 0 0 0-.26-.1h-.44v.7zm2.97.2h-.9v.6h1.05v.37h-1.52V21.3h1.52v.38h-1.05v.54h.9v.37zm2.17-.92h-.7v1.9h-.47v-1.9h-.68v-.37h1.85v.37zm1.64.91h-.9v.61h1.05v.37h-1.53V21.3h1.52v.38H37.5v.54h.9v.37zm1.27.16h-.37v.83h-.47V21.3h.84c.27 0 .49.06.63.18s.21.3.21.51c0 .16-.03.28-.1.39a.65.65 0 0 1-.3.24l.5.94v.02h-.51l-.43-.83zm-.38-.39h.38c.12 0 .22-.02.28-.08.06-.06.1-.14.1-.23v-.02c0-.1-.04-.2-.1-.25-.05-.07-.15-.1-.28-.1h-.37v.68zm2.76.62c0-.09-.03-.16-.1-.2-.09-.06-.2-.12-.32-.15-.17-.05-.3-.1-.4-.16-.25-.14-.38-.33-.38-.56 0-.13.03-.24.1-.33.07-.1.17-.17.3-.23a1.16 1.16 0 0 1 .87.01.66.66 0 0 1 .4.61h-.47c0-.1-.03-.18-.1-.24a.4.4 0 0 0-.25-.09h-.05c-.09 0-.17.03-.24.08a.23.23 0 0 0-.1.19c0 .08.04.13.11.19.08.05.19.1.34.14.27.08.46.18.58.3s.18.26.18.44c0 .2-.07.35-.22.46s-.35.17-.6.17h-.02c-.17 0-.33-.03-.47-.1a.68.68 0 0 1-.44-.63v-.01h.48c0 .25.14.37.44.37.12 0 .2-.02.27-.06.06-.06.1-.11.1-.2z"/></svg>