<svg xmlns="http://www.w3.org/2000/svg" width="57" height="32"><path fill="#afb1b8" d="M28.5 14.61a1.56 1.56 0 0 1-.33-1.06v-1.53c0-.47.1-.83.32-1.07s.59-.37 1.1-.37c.49 0 .84.1 1.04.31.23.27.34.6.31.92v.36h-.87v-.36c0-.13 0-.24-.03-.36a.35.35 0 0 0-.12-.21.5.5 0 0 0-.28-.09h-.07a.53.53 0 0 0-.3.1.42.42 0 0 0-.15.23c-.02.12-.03.25-.03.37v1.87c-.02.18.02.36.1.53a.44.44 0 0 0 .41.15h.04c.1 0 .2-.03.27-.08a.37.37 0 0 0 .13-.23c.02-.12.03-.25.03-.37v-.39h.87v.35c.02.34-.08.68-.3.97-.2.22-.55.34-1.05.34s-.88-.13-1.1-.38zm3.64.03c-.22-.25-.33-.6-.33-1.06v-1.61c0-.46.1-.8.33-1.04.22-.24.59-.35 1.1-.35.52 0 .89.11 1.1.35.23.23.34.58.34 1.04v1.61c0 .46-.1.8-.33 1.05-.23.24-.59.36-1.1.36s-.9-.12-1.11-.36zm1.51-.4a.9.9 0 0 0 .11-.48V11.8a.86.86 0 0 0-.1-.47.41.41 0 0 0-.18-.13.48.48 0 0 0-.23-.03h-.07a.48.48 0 0 0-.17.03.43.43 0 0 0-.18.13.96.96 0 0 0-.1.47v1.98c-.01.16.02.34.1.48a.62.62 0 0 0 .64.12.57.57 0 0 0 .18-.12zm2.08-3.62h.95l.7 3 .73-3h.92l.09 4.31h-.68l-.07-2.99-.7 3h-.55l-.73-3.01-.06 3h-.69l.09-4.3zm4.45 0h1.46c.85 0 1.27.42 1.27 1.23 0 .78-.44 1.17-1.33 1.17h-.5v1.91h-.9v-4.3zm1.25 1.85c.09 0 .18 0 .27-.02a.77.77 0 0 0 .23-.12.7.7 0 0 0 .13-.48c0-.14-.01-.27-.04-.4a.36.36 0 0 0-.18-.2.95.95 0 0 0-.41-.07h-.35v1.3h.35zm2.78-1.85h.98l1 4.31h-.85l-.2-.99h-.86l-.2 1h-.86l1-4.32zm.84 2.82-.34-1.8-.34 1.8h.68zM47 10.62h.63l1.21 2.46v-2.45h.76v4.3H49l-1.22-2.56v2.56H47v-4.3zm4.36 2.67-1.01-2.66h.85l.61 1.7.58-1.7h.83l-1 2.67v1.63h-.87V13.3zm-21.47 3.53v.22h-.74v1.75h-.3v-1.75h-.75v-.22h1.8zm2.32 1.98h-.24a.1.1 0 0 1-.07-.03.1.1 0 0 1-.04-.04l-.21-.47h-1.03l-.2.47-.04.05a.1.1 0 0 1-.06.02h-.25l.9-1.97h.33l.9 1.96zm-1.5-.74h.85l-.36-.8a1.33 1.33 0 0 1-.06-.18v-.01l-.04.1-.03.09-.36.8zm3.06.54h.17c.1 0 .2-.03.29-.06h-.01l.12-.05v-.44h-.36c-.02 0-.04 0-.05-.02l-.01-.01-.01-.02v-.15h.7v.75c-.17.11-.38.18-.6.2l-.27.02c-.16 0-.31-.03-.46-.08a.96.96 0 0 1-.59-.51 1 1 0 0 1-.09-.42v-.03a.9.9 0 0 1 .32-.7c.1-.08.23-.15.36-.2a1.5 1.5 0 0 1 .74-.05c.14.02.28.06.4.13l.16.1-.1.12c0 .01-.01.02-.03.02a.1.1 0 0 1-.03.02l-.06-.02a1.12 1.12 0 0 0-.58-.16h-.04c-.12 0-.24.02-.34.06a.74.74 0 0 0-.43.39.94.94 0 0 0 0 .66.78.78 0 0 0 .8.45zm2.9-.04h.98v.23h-1.3v-1.97h.32v1.75zm2 .24h-.3v-1.98h.3v1.98zm1.16-1.97c.02 0 .04.02.05.03l1.32 1.5V16.8h.27v1.99h-.15c-.03 0-.05 0-.07-.02a.18.18 0 0 1-.05-.03l-1.32-1.5v1.55h-.26v-1.98h.21zm3.93-.01v.2h-1.1v.67h.89v.2h-.9v.68h1.1v.21h-1.41v-1.96h1.42zM11.29 4.62l13.76 3.37v11.82l-13.76-3.37V4.62zM10.4 3.6v13.41l15.51 3.81V7.42L10.4 3.6z"/><path fill="#afb1b8" d="M18.72 27.04 3.2 23.22V9.82l15.52 3.82v13.4z"/><path fill="#afb1b8" d="M10.66 4.46 24.24 7.8l-5.78 4.98L4.9 9.45l5.77-4.99zm-.26-.85L3.2 9.83l15.52 3.8 7.2-6.22-15.52-3.8zm9.2 22.67 6.33-5.46-6.34-1.56v7.02z"/></svg>