<svg xmlns="http://www.w3.org/2000/svg" width="32" height="32"><path fill="#fff" d="M32 6.08c-1.18.53-2.46.86-3.78 1.04a6.46 6.46 0 0 0 2.88-3.63 13.95 13.95 0 0 1-4.16 1.6 6.54 6.54 0 0 0-11.37 4.45c0 .54.06 1.06.18 1.56v-.04A18.55 18.55 0 0 1 2.26 4.23l-.03-.04a6.6 6.6 0 0 0 1.98 8.75l.02.02a6.3 6.3 0 0 1-2.96-.8v.06c0 3.2 2.27 5.84 5.26 6.45a6.41 6.41 0 0 1-3.01.1l.04.01a6.64 6.64 0 0 0 6.13 4.56h.01a13.1 13.1 0 0 1-9.77 2.73H0a18.29 18.29 0 0 0 10 2.95h.07c12.08 0 18.67-10 18.67-18.67 0-.29 0-.58-.03-.85A13.1 13.1 0 0 0 32 6.1z"/></svg>